<svg xmlns="http://www.w3.org/2000/svg" viewBox="0 0 176.32 148.26"><defs><style>.cls-1{fill:#42bfec;}.cls-2{fill:#ade0f3;}</style></defs><title>Asset 7</title><g id="Layer_2" data-name="Layer 2"><g id="Layer_1-2" data-name="Layer 1"><path class="cls-1" d="M125.18,37h0c0-.25,0-.5,0-.75a36.26,36.26,0,1,0-72.51,0v.07a29.59,29.59,0,0,0,1.39,59.15h71.12a29.24,29.24,0,0,0,0-58.47Z"/><path class="cls-2" d="M134,113.42H44.66a3.77,3.77,0,1,1,0-7.54H134a3.77,3.77,0,0,1,0,7.54Z"/><path class="cls-2" d="M172.55,113.42h-19a3.77,3.77,0,0,1,0-7.54h19a3.77,3.77,0,0,1,0,7.54Z"/><path class="cls-2" d="M168.82,148.26H29.09a3.77,3.77,0,0,1,0-7.53H168.82a3.77,3.77,0,1,1,0,7.53Z"/><path class="cls-2" d="M108.61,130.84H3.77a3.77,3.77,0,1,1,0-7.53H108.61a3.77,3.77,0,0,1,0,7.53Z"/><path class="cls-2" d="M160.72,130.84H130a3.77,3.77,0,1,1,0-7.53h30.68a3.77,3.77,0,0,1,0,7.53Z"/></g></g></svg>