<svg xmlns="http://www.w3.org/2000/svg" viewBox="0 0 129.97 137.42"><defs><style>.cls-1{fill:#42bfec;}.cls-2{fill:#ade0f3;}</style></defs><title>Asset 6</title><g id="Layer_2" data-name="Layer 2"><g id="Layer_1-2" data-name="Layer 1"><path class="cls-1" d="M100.73,37h0c0-.25,0-.5,0-.75a36.26,36.26,0,1,0-72.51,0s0,0,0,.07a29.59,29.59,0,0,0,1.38,59.15h71.12a29.24,29.24,0,1,0,0-58.47Z"/><circle class="cls-2" cx="30.48" cy="76.63" r="6.11"/><circle class="cls-2" cx="30.48" cy="95.48" r="6.11"/><circle class="cls-2" cx="30.48" cy="113.39" r="6.11"/><circle class="cls-2" cx="30.48" cy="131.31" r="6.11"/><circle class="cls-2" cx="53.48" cy="76.63" r="6.11"/><circle class="cls-2" cx="53.48" cy="95.48" r="6.11"/><circle class="cls-2" cx="53.48" cy="113.39" r="6.11"/><circle class="cls-2" cx="53.48" cy="131.31" r="6.11"/><circle class="cls-2" cx="76.49" cy="76.63" r="6.11"/><circle class="cls-2" cx="76.49" cy="95.48" r="6.11"/><circle class="cls-2" cx="76.49" cy="113.39" r="6.11"/><circle class="cls-2" cx="76.49" cy="131.31" r="6.11"/><circle class="cls-2" cx="99.49" cy="76.63" r="6.11"/><circle class="cls-2" cx="99.49" cy="95.48" r="6.11"/><circle class="cls-2" cx="99.49" cy="113.39" r="6.11"/><circle class="cls-2" cx="99.49" cy="131.31" r="6.11"/></g></g></svg>