<svg xmlns="http://www.w3.org/2000/svg" viewBox="0 0 154.5 154.5"><defs><style>.cls-1,.cls-4{fill:#119724;}.cls-2{fill:#fff;stroke-miterlimit:10;stroke-width:1.27px;}.cls-2,.cls-3,.cls-4,.cls-5{stroke:#fff;}.cls-3,.cls-5{fill:none;}.cls-3,.cls-4,.cls-5{stroke-linecap:round;stroke-linejoin:round;}.cls-3{stroke-width:2.78px;}.cls-4,.cls-5{stroke-width:4px;}</style></defs><title>Asset 2</title><g id="Layer_2" data-name="Layer 2"><g id="Layer_1-2" data-name="Layer 1"><circle class="cls-1" cx="77.25" cy="77.25" r="77.25"/><path class="cls-2" d="M83.62,121.26c41.09,2.52,43.78-23.57,37.75-47.59a148.44,148.44,0,0,0-10.79-28.92A159.59,159.59,0,0,0,84.07,60.43C75.31,67,67.73,75.08,64.79,84,61.07,95.25,64.92,107.92,83.62,121.26Z"/><line class="cls-3" x1="109.6" y1="47.58" x2="80.64" y2="130.05"/><path class="cls-4" d="M74.59,119.15c43.54-22.52,30.37-50.82,9.54-71.7a177.57,177.57,0,0,0-28.71-23C50.17,32.36,43,44.17,37.89,56.66c-4.92,12.09-7.75,25-5.32,35.85C35.66,106.33,47.33,116.92,74.59,119.15Z"/><line class="cls-5" x1="56.17" y1="27.98" x2="76.91" y2="129.96"/><line class="cls-5" x1="71.75" y1="101.4" x2="81.96" y2="81.74"/><line class="cls-5" x1="66.58" y1="75.88" x2="76.79" y2="56.21"/><line class="cls-5" x1="70.11" y1="101.73" x2="53.06" y2="87.59"/><line class="cls-5" x1="64.95" y1="76.21" x2="47.89" y2="62.06"/></g></g></svg>