<?xml version="1.0" encoding="utf-8"?>
<!-- Generator: Adobe Illustrator 24.0.1, SVG Export Plug-In . SVG Version: 6.00 Build 0)  -->
<svg version="1.1" id="Layer_1" xmlns="http://www.w3.org/2000/svg" xmlns:xlink="http://www.w3.org/1999/xlink" x="0px" y="0px"
	 viewBox="0 0 225 2272.2" style="enable-background:new 0 0 225 2272.2;" xml:space="preserve">
<style type="text/css">
	.st0{fill:#00660C;}
	.st1{fill:none;stroke:#FFFFFF;stroke-width:13;stroke-miterlimit:10;}
	.st2{fill:#FFFFFF;}
</style>
<title>Asset 24</title>
<path class="st0" d="M224.9,2067.2c-2.3,87.4-66.5,165.9-96.9,198.2c-8.2,8.7-21.9,9.1-30.5,0.9c-0.3-0.3-0.5-0.5-0.8-0.8
	c-31-32.3-96.7-111.7-96.7-203c0-62.1,50.4-112.5,112.5-112.5c0.2,0,0.3,0,0.5,0C176.4,1950.3,226.6,2003.8,224.9,2067.2z"/>
<circle class="st1" cx="112.5" cy="2061.6" r="95"/>
<path class="st2" d="M138.2,2021.7c-3.5-0.1-7.1,0.1-10.6,0.5c-22.8,2.7-33.9,16.8-36.6,31.9h0.5c5.4-6.2,13.6-10.6,24.5-10.6
	c18.8,0,33.4,13.4,33.4,35.6c0,20.8-15.3,39-38.5,39c-26.5,0-41.2-20.2-41.2-47c0-21,7.6-38.1,19-49.1c10.1-9.4,23.2-14.8,38.8-16.1
	c3.5-0.4,6.9-0.5,10.4-0.3L138.2,2021.7z M128.5,2080.3c0-12.6-6.9-21.7-19-21.7c-7.6,0.1-14.5,4.4-17.8,11.3c-1,2-1.4,4.3-1.3,6.6
	c0.3,14.4,7.2,26.2,20.5,26.2C121.6,2102.6,128.5,2093.4,128.5,2080.3z"/>
<path class="st0" d="M224.9,1677.2c-2.3,87.4-66.5,165.9-96.9,198.2c-8.2,8.7-21.9,9.1-30.5,0.9c-0.3-0.3-0.5-0.5-0.8-0.8
	c-31-32.3-96.7-111.7-96.7-203c0-62.1,50.4-112.5,112.5-112.5c0.2,0,0.3,0,0.5,0C176.4,1560.3,226.6,1613.8,224.9,1677.2z"/>
<circle class="st1" cx="112.5" cy="1671.6" r="95"/>
<path class="st2" d="M146.1,1632.8h-42l-3.2,21.8c2.6-0.4,5.3-0.5,7.9-0.5c9.6,0,19.2,2.2,26.5,7.1c8.2,5.2,14.3,14.4,14.3,27.7
	c0,20.8-17.3,37.8-44.2,37.8c-12.6,0-23.2-3.2-28.9-6.4l4.2-15.6c7.5,3.7,15.7,5.6,24,5.7c12.1,0,23.7-6.9,23.7-20
	c0-12.4-9.2-20.7-31.1-20.7c-5-0.1-10,0.3-14.9,1l7.2-55.1H146L146.1,1632.8z"/>
<path class="st0" d="M224.9,1287.2c-2.3,87.4-66.5,165.9-96.9,198.2c-8.2,8.7-21.9,9.1-30.5,0.9c-0.3-0.3-0.5-0.5-0.8-0.8
	c-31-32.3-96.7-111.7-96.7-203c0-62.1,50.4-112.5,112.5-112.5c0.2,0,0.3,0,0.5,0C176.4,1170.3,226.6,1223.8,224.9,1287.2z"/>
<circle class="st1" cx="112.5" cy="1281.6" r="95"/>
<path class="st2" d="M115.2,1335.2v-27.7H65.8V1294l44.5-68h24.3v65.9h14.1v15.6h-14.1v27.7H115.2z M115.2,1291.8v-29.7
	c0-6.2,0.2-12.6,0.7-19h-0.7c-3.4,6.9-6.2,12.4-9.6,18.5l-20,29.9l-0.2,0.3L115.2,1291.8z"/>
<path class="st0" d="M224.9,897.2c-2.3,87.4-66.5,165.9-96.9,198.2c-8.2,8.7-21.9,9.1-30.5,0.9c-0.3-0.3-0.5-0.5-0.8-0.8
	C65.7,1063.2,0,983.8,0,892.5C0,830.4,50.4,780,112.5,780c0.2,0,0.3,0,0.5,0C176.4,780.3,226.6,833.8,224.9,897.2z"/>
<circle class="st1" cx="112.5" cy="891.6" r="95"/>
<path class="st2" d="M80.9,922.6c7.6,4.2,16.2,6.5,24.9,6.7c15.8,0,22.2-8.9,22-17.5c0-12.9-12.1-18.5-24.7-18.5h-9.6v-15.1h9.2
	c9.6,0,21.7-4.4,21.7-15.3c0-7.4-5.5-13.6-17.5-13.6c-8.9,0-17.8,3.9-22.3,6.9l-4.7-15c6.2-4.4,18.3-8.4,31.4-8.4
	c22.5,0,34.1,12.4,34.1,26.7c0,11.4-6.7,20.8-20.2,25.5v0.3c13.3,2.3,24,12.4,24,27.2c0,18.5-15.5,33.1-42.5,33.1
	c-13.3,0-24.7-3.7-30.6-7.6L80.9,922.6z"/>
<path class="st0" d="M225,507.2c-2.3,87.4-66.5,165.9-96.9,198.2c-8.2,8.7-21.9,9.1-30.5,0.9c-0.3-0.3-0.5-0.5-0.8-0.8
	c-31-32.3-96.7-111.7-96.7-203C0.1,440.4,50.5,390,112.6,390c0.2,0,0.3,0,0.5,0C176.5,390.3,226.7,443.8,225,507.2z"/>
<circle class="st1" cx="112.6" cy="501.6" r="95"/>
<path class="st2" d="M74.8,551.1v-12.6l12.9-11.9c25.7-23.8,37.8-37,38-51.4c0-9.7-5.2-18.3-19.5-18.3c-9.6,0-17.8,4.9-23.4,9.1
	l-6-14.6c7.9-6.4,19.8-11.3,33.6-11.3c24.2,0,36,15.3,36,33.1c0,19.2-13.8,34.6-32.8,52.3l-9.6,8.2v0.4h44.9v17.1L74.8,551.1
	L74.8,551.1z"/>
<path class="st0" d="M224.9,117.2c-2.3,87.4-66.5,165.9-96.9,198.2c-8.2,8.7-21.9,9.1-30.5,0.9c-0.3-0.3-0.5-0.5-0.8-0.8
	C65.7,283.2,0,203.8,0,112.5C0,50.4,50.4,0,112.5,0c0.2,0,0.3,0,0.5,0C176.4,0.3,226.6,53.8,224.9,117.2z"/>
<circle class="st1" cx="112.5" cy="111.6" r="95"/>
<path class="st2" d="M107.1,75.3h-0.3l-20,10.1l-3.6-15.7l26.6-13.1h17.3v109.5h-20L107.1,75.3z"/>
</svg>
