<svg xmlns="http://www.w3.org/2000/svg" viewBox="0 0 224.98 322.21"><defs><style>.cls-1,.cls-3,.cls-4{fill:#119724;}.cls-2,.cls-5{fill:#fff;}.cls-3,.cls-4,.cls-5{stroke:#119724;}.cls-3{stroke-miterlimit:10;stroke-width:1.27px;}.cls-4,.cls-5{stroke-linecap:round;stroke-linejoin:round;}.cls-4{stroke-width:2.78px;}.cls-5{stroke-width:4px;}</style></defs><title>Asset 4</title><g id="Layer_2" data-name="Layer 2"><g id="Layer_1-2" data-name="Layer 1"><path class="cls-1" d="M224.94,117.19c-2.25,87.41-66.54,165.92-96.88,198.22a21.61,21.61,0,0,1-31.35.13C65.74,283.22,0,203.85,0,112.5A112.5,112.5,0,0,1,113,0C176.41.29,226.57,53.83,224.94,117.19Z"/><circle class="cls-2" cx="112" cy="112.5" r="77.25"/></g><g id="Layer_2-2" data-name="Layer 2"><path class="cls-3" d="M117.88,156.51c41.09,2.52,43.78-23.57,37.75-47.59A148.13,148.13,0,0,0,144.84,80a159,159,0,0,0-26.51,15.68c-8.76,6.59-16.34,14.65-19.28,23.55C95.33,130.5,99.18,143.17,117.88,156.51Z"/><line class="cls-4" x1="143.86" y1="82.83" x2="114.9" y2="165.3"/><path class="cls-5" d="M108.85,154.4c43.54-22.52,30.37-50.82,9.54-71.7a177.47,177.47,0,0,0-28.71-23c-5.25,7.91-12.46,19.72-17.53,32.21-4.92,12.09-7.75,25-5.32,35.85C69.92,141.58,81.6,152.17,108.85,154.4Z"/><line class="cls-5" x1="90.43" y1="63.23" x2="111.17" y2="165.21"/><line class="cls-5" x1="106.01" y1="136.65" x2="116.22" y2="116.99"/><line class="cls-5" x1="100.84" y1="111.13" x2="111.05" y2="91.46"/><line class="cls-5" x1="104.37" y1="136.98" x2="87.32" y2="122.84"/><line class="cls-5" x1="99.21" y1="111.46" x2="82.15" y2="97.31"/></g></g></svg>