<svg width="390" height="844" viewBox="0 0 390 844" fill="none" xmlns="http://www.w3.org/2000/svg">
<g clip-path="url(#clip0_242_466)">
<rect width="390" height="844" fill="black"/>
<rect x="-1" y="157" width="393" height="530" fill="white"/>
<rect x="45" y="87" width="300" height="49" rx="14" fill="white"/>
<path d="M80.7244 114.136H83.5881L85.2841 116.335L86.4943 117.767L89.4006 121.5H86.3324L84.3551 118.994L83.5114 117.801L80.7244 114.136ZM89.8182 111.273C89.8182 113.153 89.4659 114.764 88.7614 116.105C88.0625 117.44 87.108 118.463 85.8977 119.173C84.6932 119.884 83.3267 120.239 81.7983 120.239C80.2699 120.239 78.9006 119.884 77.6903 119.173C76.4858 118.457 75.5313 117.432 74.8267 116.097C74.1278 114.756 73.7784 113.148 73.7784 111.273C73.7784 109.392 74.1278 107.784 74.8267 106.449C75.5313 105.108 76.4858 104.082 77.6903 103.372C78.9006 102.662 80.2699 102.307 81.7983 102.307C83.3267 102.307 84.6932 102.662 85.8977 103.372C87.108 104.082 88.0625 105.108 88.7614 106.449C89.4659 107.784 89.8182 109.392 89.8182 111.273ZM86.6392 111.273C86.6392 109.949 86.4318 108.832 86.017 107.923C85.608 107.009 85.0398 106.318 84.3125 105.852C83.5852 105.381 82.7472 105.145 81.7983 105.145C80.8494 105.145 80.0114 105.381 79.2841 105.852C78.5568 106.318 77.9858 107.009 77.571 107.923C77.1619 108.832 76.9574 109.949 76.9574 111.273C76.9574 112.597 77.1619 113.716 77.571 114.631C77.9858 115.54 78.5568 116.23 79.2841 116.702C80.0114 117.168 80.8494 117.401 81.7983 117.401C82.7472 117.401 83.5852 117.168 84.3125 116.702C85.0398 116.23 85.608 115.54 86.017 114.631C86.4318 113.716 86.6392 112.597 86.6392 111.273ZM92.831 120V102.545H99.3764C100.717 102.545 101.842 102.778 102.751 103.244C103.666 103.71 104.357 104.364 104.822 105.205C105.294 106.04 105.53 107.014 105.53 108.128C105.53 109.247 105.291 110.219 104.814 111.043C104.342 111.861 103.646 112.494 102.726 112.943C101.805 113.386 100.675 113.608 99.3338 113.608H94.6719V110.983H98.9077C99.6918 110.983 100.334 110.875 100.834 110.659C101.334 110.437 101.703 110.116 101.942 109.696C102.186 109.27 102.308 108.747 102.308 108.128C102.308 107.509 102.186 106.98 101.942 106.543C101.697 106.099 101.325 105.764 100.825 105.537C100.325 105.304 99.6804 105.188 98.8906 105.188H95.9929V120H92.831ZM101.848 112.091L106.169 120H102.641L98.3963 112.091H101.848ZM115.912 101.76H129.904V104.304H115.912V101.76ZM113.632 117.024H133.72V119.592H113.632V117.024ZM128.632 101.76H131.776V103.704C131.776 106.392 131.8 109.536 130.768 114.36L127.624 114.024C128.632 109.512 128.632 106.272 128.632 103.704V101.76ZM129.208 107.112V109.512L115.648 110.256L115.216 107.544L129.208 107.112ZM120.76 111.696H123.952V117.96H120.76V111.696ZM138.062 110.16H153.686V112.704H138.062V110.16ZM135.734 116.856H155.846V119.472H135.734V116.856ZM138.062 101.736H153.518V104.328H141.23V111.216H138.062V101.736ZM157.788 109.872H177.924V112.2H157.788V109.872ZM160.044 113.304H175.524V118.584H163.26V120.48H160.092V116.568H172.38V115.464H160.044V113.304ZM160.092 119.808H176.148V121.968H160.092V119.808ZM160.26 100.296H175.476V105.528H163.452V107.352H160.284V103.536H172.332V102.432H160.26V100.296ZM160.284 106.68H175.884V108.84H160.284V106.68ZM191.051 103.152H193.451V103.44C193.451 105.96 191.363 108 187.235 108.48L186.203 106.224C189.419 105.888 191.051 104.712 191.051 103.44V103.152ZM191.843 103.152H194.219V103.44C194.219 104.664 195.875 105.744 198.971 106.056L197.939 108.336C193.907 107.856 191.843 105.888 191.843 103.44V103.152ZM186.755 101.424H198.491V103.704H186.755V101.424ZM191.051 107.712H194.243V110.64H191.051V107.712ZM191.051 99.84H194.219V102.672H191.051V99.84ZM188.507 112.92H203.459V118.488H191.699V120.696H188.531V116.328H200.315V115.224H188.507V112.92ZM188.531 119.664H204.227V121.992H188.531V119.664ZM200.267 99.912H203.459V112.104H200.267V99.912ZM202.331 104.616H206.243V107.208H202.331V104.616ZM186.083 111.864L185.747 109.512C189.683 109.512 194.843 109.488 199.187 108.96L199.427 111.096C194.915 111.816 189.947 111.864 186.083 111.864ZM217.738 102.816H224.314V105.36H217.738V102.816ZM217.738 107.736H224.314V110.304H217.738V107.736ZM214.042 101.088C217.354 101.088 219.898 103.392 219.898 106.536C219.898 109.68 217.354 111.984 214.042 111.984C210.706 111.984 208.162 109.68 208.162 106.536C208.162 103.392 210.706 101.088 214.042 101.088ZM214.042 103.8C212.41 103.8 211.21 104.784 211.21 106.536C211.21 108.264 212.41 109.296 214.042 109.296C215.674 109.296 216.874 108.264 216.874 106.536C216.874 104.784 215.674 103.8 214.042 103.8ZM223.306 99.912H226.498V112.92H223.306V99.912ZM218.962 113.376C223.642 113.376 226.57 115.008 226.57 117.768C226.57 120.528 223.642 122.136 218.962 122.136C214.282 122.136 211.354 120.528 211.354 117.768C211.354 115.008 214.282 113.376 218.962 113.376ZM218.962 115.848C216.058 115.848 214.498 116.472 214.498 117.768C214.498 119.064 216.058 119.688 218.962 119.688C221.89 119.688 223.426 119.064 223.426 117.768C223.426 116.472 221.89 115.848 218.962 115.848ZM229.952 103.248H240.584V105.792H229.952V103.248ZM235.304 106.776C238.136 106.776 240.176 108.96 240.176 112.08C240.176 115.176 238.136 117.36 235.304 117.36C232.496 117.36 230.432 115.176 230.432 112.08C230.432 108.96 232.496 106.776 235.304 106.776ZM235.304 109.44C234.104 109.44 233.264 110.4 233.264 112.08C233.264 113.76 234.104 114.696 235.304 114.696C236.504 114.696 237.368 113.76 237.368 112.08C237.368 110.4 236.504 109.44 235.304 109.44ZM246.032 99.912H249.08V122.136H246.032V99.912ZM243.368 108.936H247.04V111.504H243.368V108.936ZM241.376 100.32H244.352V121.2H241.376V100.32ZM233.744 100.512H236.888V104.856H233.744V100.512ZM260.286 102.384H263.046V103.032C263.046 106.944 259.854 110.136 254.214 110.904L253.038 108.408C257.934 107.808 260.286 105.312 260.286 103.032V102.384ZM261.198 102.384H263.958V103.032C263.958 105.312 266.31 107.808 271.206 108.408L270.054 110.904C264.39 110.136 261.198 106.944 261.198 103.032V102.384ZM260.454 114H263.622V122.16H260.454V114ZM252.078 112.176H272.166V114.72H252.078V112.176ZM253.854 101.04H270.342V103.56H253.854V101.04ZM282.892 107.376H286.564V109.968H282.892V107.376ZM278.14 101.832H280.588V105.576C280.588 110.616 279.196 115.536 275.644 117.72L273.724 115.32C276.988 113.304 278.14 109.344 278.14 105.576V101.832ZM278.836 101.832H281.236V105.432C281.236 109.056 282.172 112.752 285.196 114.72L283.468 117.216C279.94 115.032 278.836 110.232 278.836 105.432V101.832ZM290.188 99.912H293.236V122.136H290.188V99.912ZM285.676 100.248H288.652V121.128H285.676V100.248ZM300.65 111.192H303.818V117.432H300.65V111.192ZM308.714 111.192H311.906V117.432H308.714V111.192ZM296.234 116.976H316.346V119.568H296.234V116.976ZM306.266 100.992C311.042 100.992 314.57 103.344 314.57 106.968C314.57 110.592 311.042 112.92 306.266 112.92C301.466 112.92 297.962 110.592 297.962 106.968C297.962 103.344 301.466 100.992 306.266 100.992ZM306.266 103.488C303.17 103.488 301.106 104.76 301.106 106.968C301.106 109.152 303.17 110.448 306.266 110.448C309.362 110.448 311.426 109.152 311.426 106.968C311.426 104.76 309.362 103.488 306.266 103.488Z" fill="black"/>
<path d="M90.5 314.5H185.5V409.5H90.5V314.5ZM109.5 333.5V390.5H166.5V333.5H109.5Z" fill="black"/>
<path fill-rule="evenodd" clip-rule="evenodd" d="M128.5 352.5H147.5V371.5H128.5V352.5Z" fill="black"/>
<path d="M204.5 314.5H299.5V409.5H204.5V314.5ZM223.5 333.5V390.5H280.5V333.5H223.5Z" fill="black"/>
<path fill-rule="evenodd" clip-rule="evenodd" d="M242.5 352.5H261.5V371.5H242.5V352.5Z" fill="black"/>
<path d="M90.5 428.5H185.5V523.5H90.5V428.5ZM109.5 447.5V504.5H166.5V447.5H109.5Z" fill="black"/>
<path fill-rule="evenodd" clip-rule="evenodd" d="M128.5 466.5H147.5V485.5H128.5V466.5Z" fill="black"/>
<path d="M299.5 485.5H261.5V523.5H204.5V428.5V485.5H223.5V504.5H242.5V447.5H223.5V428.5H214H242.5V447.5H261.5V466.5H280.5V428.5H299.5V485.5ZM299.5 504.5V523.5H280.5V504.5H299.5Z" fill="black"/>
<rect x="72.5" y="296.5" width="245" height="245" stroke="#FF0000" stroke-width="7"/>
<rect x="116" y="534" width="159" height="50" fill="white"/>
<rect x="116" y="255" width="159" height="50" fill="white"/>
<rect x="304" y="502" width="159" height="50" transform="rotate(-90 304 502)" fill="white"/>
<rect x="31" y="502" width="159" height="50" transform="rotate(-90 31 502)" fill="white"/>
<rect width="390" height="844" fill="black" fill-opacity="0.7"/>
</g>
<defs>
<clipPath id="clip0_242_466">
<rect width="390" height="844" fill="white"/>
</clipPath>
</defs>
</svg>
