<svg xmlns="http://www.w3.org/2000/svg" viewBox="0 0 200.73 204.96"><defs><style>.cls-1{fill:none;stroke-width:7.05px;}.cls-1,.cls-2,.cls-3,.cls-4{stroke:#119724;}.cls-1,.cls-2{stroke-miterlimit:10;}.cls-2,.cls-3{fill:#119724;}.cls-2{stroke-width:1.41px;}.cls-3,.cls-4{stroke-linecap:round;stroke-linejoin:round;stroke-width:3.1px;}.cls-4{fill:#fff;}</style></defs><title>Asset 9</title><g id="Layer_2" data-name="Layer 2"><g id="OBJECTS"><path class="cls-1" d="M3.53,64.61V25.8A22.38,22.38,0,0,1,26,3.53H65.21"/><path class="cls-1" d="M197.2,64.61V25.8A22.38,22.38,0,0,0,174.71,3.53H135.52"/><path class="cls-1" d="M197.2,140.35v38.81a22.39,22.39,0,0,1-22.49,22.28H135.52"/><path class="cls-1" d="M3.53,140.35v38.81A22.39,22.39,0,0,0,26,201.44H65.21"/><path class="cls-2" d="M109.73,153.47c49.79,3,53.05-28.28,45.74-57.11A178.06,178.06,0,0,0,142.4,61.62c-8.72,4.13-21.18,10.62-32.13,18.81C99.66,88.35,90.48,98,86.91,108.7,82.4,122.26,87.08,137.45,109.73,153.47Z"/><line class="cls-3" x1="141.21" y1="65.06" x2="106.11" y2="164.02"/><path class="cls-4" d="M98.79,150.93c52.76-27,36.79-61,11.56-86A215.3,215.3,0,0,0,75.57,37.3C69.21,46.79,60.46,61,54.33,76c-6,14.51-9.4,29.94-6.46,43C51.62,135.55,65.77,148.26,98.79,150.93Z"/><line class="cls-4" x1="76.47" y1="41.54" x2="101.6" y2="163.9"/><line class="cls-4" x1="95.35" y1="129.64" x2="107.72" y2="106.04"/><line class="cls-4" x1="89.09" y1="99.01" x2="101.46" y2="75.41"/><line class="cls-4" x1="93.37" y1="130.04" x2="72.7" y2="113.06"/><line class="cls-4" x1="87.1" y1="99.41" x2="66.44" y2="82.43"/></g></g></svg>