<svg xmlns="http://www.w3.org/2000/svg" viewBox="0 0 183.16 184.74"><defs><style>.cls-1{fill:#fff;}.cls-2{font-size:38.75px;font-family:BMDoHyeon, BM DoHyeon;}</style></defs><title>Asset 8</title><g id="Layer_2" data-name="Layer 2"><g id="Layer_1-2" data-name="Layer 1"><path d="M91.58,184.74a13.91,13.91,0,0,1-12.25-7.14,13.68,13.68,0,0,1-9.72,4,14.27,14.27,0,0,1-10.81-4.91,13.54,13.54,0,0,1-3-6,13.53,13.53,0,0,1-6.49,1.63h0a14.4,14.4,0,0,1-12-6.58,13.56,13.56,0,0,1-2.15-8.31,13.49,13.49,0,0,1-2.84.3,14.15,14.15,0,0,1-12.79-8.36,13.7,13.7,0,0,1-.4-10.47A14.08,14.08,0,0,1,9,116.62,14.06,14.06,0,0,1,5.49,92.37,14.06,14.06,0,0,1,9,68.12,14.08,14.08,0,0,1,19.14,45.81a13.67,13.67,0,0,1,.4-10.46A14.16,14.16,0,0,1,32.33,27a13.5,13.5,0,0,1,2.84.31A13.54,13.54,0,0,1,37.32,19a14.38,14.38,0,0,1,12-6.59A13.57,13.57,0,0,1,55.8,14a13.63,13.63,0,0,1,3-6,14.3,14.3,0,0,1,10.81-4.9,13.68,13.68,0,0,1,9.72,4,14.07,14.07,0,0,1,24.5,0,13.68,13.68,0,0,1,9.72-4,14.3,14.3,0,0,1,10.81,4.9,13.63,13.63,0,0,1,3,6,13.54,13.54,0,0,1,6.49-1.64,14.37,14.37,0,0,1,12,6.59A13.54,13.54,0,0,1,148,27.29a13.5,13.5,0,0,1,2.84-.31,14.16,14.16,0,0,1,12.79,8.37,13.67,13.67,0,0,1,.4,10.46,14.08,14.08,0,0,1,10.16,22.31,14.06,14.06,0,0,1,3.49,24.25,14.07,14.07,0,0,1-3.49,24.26A14.07,14.07,0,0,1,164,138.93a13.7,13.7,0,0,1-.4,10.47,14.14,14.14,0,0,1-12.79,8.36h0a13.49,13.49,0,0,1-2.84-.3,13.56,13.56,0,0,1-2.15,8.31,14.38,14.38,0,0,1-12,6.58,13.53,13.53,0,0,1-6.49-1.63,13.54,13.54,0,0,1-3,6,14.27,14.27,0,0,1-10.81,4.91,13.68,13.68,0,0,1-9.72-4A13.91,13.91,0,0,1,91.58,184.74Z"/><circle class="cls-1" cx="91.58" cy="92.37" r="82.7"/><path d="M163.54,99.15h0a.91.91,0,0,0-1,.81l0,.44a.8.8,0,0,0,0,.31.89.89,0,0,0,.74.68h.13a.91.91,0,0,0,.9-.8l.05-.46a1.05,1.05,0,0,0,0-.36A.92.92,0,0,0,163.54,99.15Z"/><path d="M163.08,76.76a.91.91,0,0,0-1.08-.7h0a.91.91,0,0,0-.66,1.07l.09.44a.92.92,0,0,0,.89.72l.17,0h0a.9.9,0,0,0,.7-1.07Z"/><path d="M113,22.4l-.45-.13a.89.89,0,0,0-1.12.6v0a.9.9,0,0,0,.61,1.1l.42.13a1.26,1.26,0,0,0,.27,0,.92.92,0,0,0,.86-.63h0A.9.9,0,0,0,113,22.4Z"/><path d="M164.75,92.83v-.61a.91.91,0,0,0-.91-.91h0a.9.9,0,0,0-.88.9v.6a.9.9,0,0,0,.87.91h0A.91.91,0,0,0,164.75,92.83Z"/><path d="M154.56,55.1a.9.9,0,0,0-1.24-.31h0A.92.92,0,0,0,153,56l.23.38a.9.9,0,0,0,.78.45.85.85,0,0,0,.43-.12h0a.91.91,0,0,0,.32-1.24Z"/><path d="M40.46,41.3a.89.89,0,0,0,1.27,0l.33-.31a1,1,0,0,0,.22-.38.9.9,0,0,0-.19-.88v0a.9.9,0,0,0-1.28,0l-.33.32a.87.87,0,0,0-.21,1,.77.77,0,0,0,.19.31Z"/><path d="M82.21,19.8l-.46.06a.9.9,0,0,0-.77,1h0a.9.9,0,0,0,.9.77H82l.44,0a.9.9,0,0,0,.78-1v0A.9.9,0,0,0,82.21,19.8Z"/><path d="M96.93,165.35H97l.46,0a.91.91,0,0,0,.83-1h0a.92.92,0,0,0-1-.82l-.44,0a.91.91,0,0,0-.84,1h0A.91.91,0,0,0,96.93,165.35Z"/><path d="M113.34,161.3a.91.91,0,0,0-1.12-.6l-.44.13a.92.92,0,0,0-.61,1.1s0,0,0,0a.89.89,0,0,0,.86.64,1.09,1.09,0,0,0,.26,0l.44-.13a.9.9,0,0,0,.6-1.13Z"/><path d="M30.63,132.87a.9.9,0,0,0,.76.41.94.94,0,0,0,.5-.15v0a.91.91,0,0,0,.24-1.24l-.25-.37a.9.9,0,0,0-1.22-.27h0a.9.9,0,0,0-.26,1.25Z"/><path d="M150.12,134.73a.91.91,0,0,0-1.25.19l-.27.36a.9.9,0,0,0,.17,1.25,0,0,0,0,1,0,0,1,1,0,0,0,.55.18.89.89,0,0,0,.72-.36l.27-.37a.9.9,0,0,0-.18-1.26Z"/><path d="M23.28,118.66l.16.43a.91.91,0,0,0,.84.57.92.92,0,0,0,.33-.06h0a.91.91,0,0,0,.5-1.16L25,118a.9.9,0,0,0-1.15-.52h0A.91.91,0,0,0,23.28,118.66Z"/><path d="M20.24,104.85h.17a.91.91,0,0,0,.72-1l-.07-.44a.9.9,0,0,0-1-.76h0a.91.91,0,0,0-.77,1l.08.46A.9.9,0,0,0,20.24,104.85Z"/><path d="M18.54,88.1l0,.46a.91.91,0,0,0,.86,1h0a.91.91,0,0,0,.91-.86l0-.44a.9.9,0,0,0-.82-.95h0A.89.89,0,0,0,18.54,88.1Z"/><path d="M20.09,81.85h.12a.91.91,0,0,0,.9-.76l.07-.44a.9.9,0,0,0-.72-1h0a.9.9,0,0,0-1,.74l-.07.45a.91.91,0,0,0,.75,1Z"/><path d="M23.9,67h0a.85.85,0,0,0,.31.06h.05a.9.9,0,0,0,.79-.57l.16-.41a.89.89,0,0,0,0-.68,1,1,0,0,0-.48-.49h0a.91.91,0,0,0-1.18.51l-.16.43A.91.91,0,0,0,23.9,67Z"/><path d="M21,111.69a.89.89,0,0,0,.87.67,1,1,0,0,0,.24,0h0a.92.92,0,0,0,.61-1.1l-.12-.43a.9.9,0,0,0-1.09-.64h0a.9.9,0,0,0-.64,1.1Z"/><path d="M32.06,51.37a.89.89,0,0,0-1.25.25l-.26.38a.91.91,0,0,0,.25,1.25h0a.92.92,0,0,0,.47.14.9.9,0,0,0,.76-.4l.25-.38a.91.91,0,0,0-.23-1.24Z"/><path d="M28,57.93h0a.92.92,0,0,0-1.23.38l-.21.41A.9.9,0,0,0,27,59.93h0a.91.91,0,0,0,1.2-.4l.2-.39A.89.89,0,0,0,28,57.93Z"/><path d="M59.88,28.32a.93.93,0,0,0,.4-.09l.4-.2a.84.84,0,0,0,.33-.29.87.87,0,0,0,.15-.7,1.33,1.33,0,0,0,0-.19s0,0,0,0a.9.9,0,0,0-1.2-.43l-.42.2a.9.9,0,0,0-.41,1.21,0,0,0,0,0,0,0A.91.91,0,0,0,59.88,28.32Z"/><path d="M35.89,47.22a.92.92,0,0,0,.7-.32l.28-.35a.9.9,0,0,0-.09-1.25l0,0a.9.9,0,0,0-1.27.11l-.3.35A.92.92,0,0,0,35.31,47h0A.9.9,0,0,0,35.89,47.22Z"/><path d="M67,25.32a.85.85,0,0,0,.31-.06l.42-.15A.9.9,0,0,0,68.24,24v0a.9.9,0,0,0-1.16-.54l-.43.15a.9.9,0,0,0-.54,1.16s0,0,0,0A.92.92,0,0,0,67,25.32Z"/><path d="M22.21,72.14h0a.93.93,0,0,0-.47,0,.81.81,0,0,0-.32.16A1.27,1.27,0,0,1,21,73L21,73.2a.88.88,0,0,0,.4,1,.77.77,0,0,0,.24.12h0l.23,0a.91.91,0,0,0,.88-.66l.11-.43A.9.9,0,0,0,22.21,72.14Z"/><path d="M119.63,26.74a.84.84,0,0,0,.35.07,1,1,0,0,0,.6-.23.93.93,0,0,0,.22-.3s0,0,0,0a.87.87,0,0,0,.05-.45.91.91,0,0,0-.53-.74l-.43-.17a.89.89,0,0,0-1.18.48v0a.89.89,0,0,0,.49,1.16Z"/><path d="M133.38,34.33a.88.88,0,0,0,.72-.37h0a.91.91,0,0,0-.21-1.26l-.38-.27a.9.9,0,0,0-1.26.22h0a.91.91,0,0,0,.22,1.25l.37.26A.92.92,0,0,0,133.38,34.33Z"/><path d="M139.41,39.11a.94.94,0,0,0,.67-.3h0a.91.91,0,0,0-.08-1.28l-.35-.3a.9.9,0,0,0-1.28.09v0a.91.91,0,0,0,.1,1.26l.34.29A.9.9,0,0,0,139.41,39.11Z"/><path d="M149.78,50.44a.87.87,0,0,0,.51-.17h0a.92.92,0,0,0,.19-1.27l-.27-.36a.91.91,0,0,0-1.27-.19s0,0,0,0a.9.9,0,0,0-.16,1.25l.26.36A.91.91,0,0,0,149.78,50.44Z"/><path d="M126.44,30.1a1,1,0,0,0,.44.11.91.91,0,0,0,.78-.44v0a.89.89,0,0,0-.35-1.23l-.39-.23a.92.92,0,0,0-1.22.34s0,0,0,0h0l0,.1a.91.91,0,0,0,.39,1.12Z"/><path d="M74.32,23.09a.83.83,0,0,0,.22,0L75,23a.9.9,0,0,0,.67-1.06v0a.9.9,0,0,0-1.08-.67l-.46.11a.9.9,0,0,0-.66,1.09h0A.9.9,0,0,0,74.32,23.09Z"/><path d="M89.54,21H90a.9.9,0,0,0,.88-.9s0,0,0,0a1,1,0,0,0-.92-.89h-.47a.91.91,0,0,0-.87.93v0A.91.91,0,0,0,89.54,21Z"/><path d="M97.16,21.23l.44,0h.08a.91.91,0,0,0,.9-.82h0a.91.91,0,0,0-.82-1l-.46,0a.9.9,0,0,0-1,.83v0A.9.9,0,0,0,97.16,21.23Z"/><path d="M126.18,154.8l-.39.21a.92.92,0,0,0-.37,1.21s0,0,0,0a.89.89,0,0,0,.79.47.87.87,0,0,0,.44-.11l.4-.22a.91.91,0,0,0,.35-1.23l0,0A.89.89,0,0,0,126.18,154.8Z"/><path d="M104.84,162.5l-.44.08a.91.91,0,0,0-.73,1v0a.91.91,0,0,0,.89.75l.16,0,.46-.08a.89.89,0,0,0,.71-1.06h0A.9.9,0,0,0,104.84,162.5Z"/><path d="M138.58,146.07l-.34.29a.91.91,0,0,0-.1,1.26s0,0,0,0a.93.93,0,0,0,.69.31.88.88,0,0,0,.59-.22l.34-.3a.9.9,0,0,0,.09-1.28h0A.91.91,0,0,0,138.58,146.07Z"/><path d="M161.91,109h0a.68.68,0,0,0,.2,0,.9.9,0,0,0,.88-.7l.1-.45a.9.9,0,0,0-.69-1.08h0a.91.91,0,0,0-1.07.7l-.09.43A.89.89,0,0,0,161.91,109Z"/><path d="M159.76,116.34h0a.77.77,0,0,0,.29.05.9.9,0,0,0,.86-.61l.15-.44a.91.91,0,0,0-.58-1.14h0a.9.9,0,0,0-1.13.57l-.14.43A.9.9,0,0,0,159.76,116.34Z"/><path d="M89.72,163.71h-.45a.91.91,0,0,0-.93.86h0a.89.89,0,0,0,.87.93h.48a.83.83,0,0,0,.51-.18.9.9,0,0,0,.4-.71v0A.91.91,0,0,0,89.72,163.71Z"/><path d="M156.83,123.46h0a.85.85,0,0,0,.38.09A.92.92,0,0,0,158,123l.19-.41a.9.9,0,0,0-.45-1.2h0a.91.91,0,0,0-1.18.46l-.18.4A.91.91,0,0,0,156.83,123.46Z"/><path d="M144,140.77l-.3.33a.89.89,0,0,0,0,1.25l0,0a.88.88,0,0,0,.62.25.91.91,0,0,0,.66-.29l.31-.34a.89.89,0,0,0,0-1.27h0A.91.91,0,0,0,144,140.77Z"/><path d="M74.25,161.61a.9.9,0,0,0-1.09.65h0a.9.9,0,0,0,.65,1.1l.45.11a.75.75,0,0,0,.21,0,.9.9,0,0,0,.88-.69v0a.9.9,0,0,0-.67-1.06Z"/><path d="M53.77,152.9l-.38-.24a.91.91,0,0,0-.9,0,1,1,0,0,0-.33.28l0,0a.9.9,0,0,0,.28,1.25l.29.18.1.06a.84.84,0,0,0,.48.14.9.9,0,0,0,.76-.42h0A.91.91,0,0,0,53.77,152.9Z"/><path d="M67.41,159.54l-.42-.16a.9.9,0,0,0-1.15.52s0,0,0,0a.89.89,0,0,0,.54,1.15l.43.16a.81.81,0,0,0,.31,0,.91.91,0,0,0,.85-.6v0A.9.9,0,0,0,67.41,159.54Z"/><path d="M160.3,70.87a.86.86,0,0,0,.27-.05h0a.9.9,0,0,0,.57-1.14l-.14-.43a.91.91,0,0,0-1.15-.58l0,0a.9.9,0,0,0-.55,1.13l.14.43A.91.91,0,0,0,160.3,70.87Z"/><path d="M137,112.8c.26-.57.5-1.14.74-1.71a49.5,49.5,0,0,0,3.52-15.16c.09-1.18.14-2.36.14-3.56,0-.86,0-1.72-.06-2.57a49.49,49.49,0,0,0-9.83-27.17c-.59-.79-1.2-1.55-1.83-2.29-.81-1-1.65-1.89-2.53-2.78-.33-.35-.67-.68-1-1,0,0,0,0,0,0a0,0,0,0,1,0-.06l0,0s0,0,0,0a.26.26,0,0,1,.06.28s-.06.14-.13.13,0-.08-.09,0a.24.24,0,0,0-.07.16s0,0-.06,0,0-.06,0-.07a.26.26,0,0,1,0,.21s-.09-.06-.11-.1a.16.16,0,0,1,0-.13s.07,0,.1,0a.23.23,0,0,1-.07-.21.25.25,0,0,1,.08-.15c.06,0,.1,0,.15,0a.15.15,0,0,1,.12-.11h0v-.06c-1.17-1.12-2.4-2.18-3.67-3.19a49.42,49.42,0,0,0-5.91-4c-.18-.1-.35-.21-.53-.3,0,0,0,.06,0,.09s-.12,0-.17.09-.07-.09-.14-.08-.21-.24-.19-.4c-1.24-.68-2.52-1.3-3.82-1.87a49.44,49.44,0,0,0-15.7-4c-.61-.06-1.23-.11-1.85-.14,0,0,0,0,0,.05l0,0s-.08.08-.11.11a.38.38,0,0,1,0,.23l-.12.08s0,0,0-.05-.08.05-.14,0,.07-.13,0-.17,0,.16-.08.18a.28.28,0,0,0,0-.09c-.08,0-.09.1-.12.16s0,.17-.09.2a2.44,2.44,0,0,1,0-.71v0c-.57,0-1.12,0-1.69,0s-1.09,0-1.64,0c-1.36,0-2.72.14-4.06.3-1.14.13-2.26.3-3.38.51a49.91,49.91,0,0,0-35,25.91,49.23,49.23,0,0,0-5.53,19.57c0,.31,0,.62-.07.94a.12.12,0,0,1,0,.1h0a2.09,2.09,0,0,1,0,.25.48.48,0,0,1,.08.16c0,.06,0,.13,0,.17a0,0,0,0,0,0,0s0,0,0,0c0,.61,0,1.23,0,1.84,0,.41,0,.82,0,1.22a.5.5,0,0,1,.09.23,1,1,0,0,1-.08.28c0,.1,0,.21,0,.31.06,1.56.2,3.1.41,4.61a47.48,47.48,0,0,0,.92,5c.27,1.12.56,2.23.91,3.32.24.79.51,1.57.8,2.34a50.06,50.06,0,0,0,18.3,23.6,51.16,51.16,0,0,0,5.37,3.26.51.51,0,0,1,.23-.17c.12,0,.16.07.24.15a.31.31,0,0,1,.3-.11l.08.06c.09-.23.1-.51.29-.68h0c.09-.08.16-.21.3-.17s.17.06.22.13.1-.17,0-.25,0,.15-.08.12a.51.51,0,0,1,0-.4c-.06,0-.08.05-.14,0,.1-.17.07-.4.19-.55a47.84,47.84,0,0,1-20.19-19.5h0a47.64,47.64,0,0,1-4.36-11,48.91,48.91,0,0,1-1.09-5.84c-.19-1.45-.3-2.92-.35-4.41,0-.36,0-.73,0-1.09,0-.07-.11-.13-.11-.2a.41.41,0,0,0,.08-.19,1,1,0,0,0-.09-.26c0-.09.09-.15.12-.21,0-.92,0-1.82.11-2.72a47.26,47.26,0,0,1,2.19-11.46l.18-.52c0-.21-.12-.46.05-.65a.32.32,0,0,1,.24-.2c.52-1.44,1.1-2.83,1.74-4.2a2.23,2.23,0,0,1,0-.36,3.59,3.59,0,0,1,.13-1.36c.18-.4.63-.32.91-.52,0-.07.1,0,.15,0h0A47.36,47.36,0,0,1,90.57,45.06l.86,0a.22.22,0,0,1,.1-.18.2.2,0,0,1,.32,0,.25.25,0,0,1,0,.17h.43a.24.24,0,0,1,.15-.08c.07,0,.08,0,.11.1h0a.18.18,0,0,1,.16,0l0,0h0c.06-.11.09-.25.21-.32s.1-.1.17-.06.09,0,.11.09.07-.08,0-.13,0,.07-.06,0a.28.28,0,0,1,.06-.2s0,0-.08,0,.07-.28.22-.31.1,0,.14-.06a.23.23,0,0,1,.14.2c0,.07,0,.16-.09.19a.32.32,0,0,1-.3.19c-.08.11-.06.25-.1.38.62,0,1.23.05,1.84.1a47,47,0,0,1,6,.81c1.14.23,2.27.52,3.39.84.14-.13.35-.13.5-.25s.09,0,.14,0-.1.07-.12.12.06,0,.07,0,.09.27.23.35h0c.86.26,1.72.54,2.56.85a45.27,45.27,0,0,1,4.41,1.88h0v0c.07-.1.13-.27.28-.22l.09.08a.6.6,0,0,1,.07.39l0,0,.16.08a47.9,47.9,0,0,1,8.89,5.81c.22.18.42.37.64.56.44.38.88.76,1.31,1.16L124,58a3.49,3.49,0,0,1,.15-.34h0c.17-.24.45-.12.67-.22,0,0,.08,0,.13,0h0a.43.43,0,0,0-.13.09c0,.05,0,0,.06,0s0,0,0,.06,0,.25.12.34L125,58a1.75,1.75,0,0,1-.06.33c-.12,0-.07.16-.16.2l0,0a.27.27,0,0,0-.07.08c.72.71,1.43,1.44,2.1,2.19a47.13,47.13,0,0,1,12,28.28c0,.22,0,.43.05.65a.27.27,0,0,0,.07.08l-.06,0c0,.59,0,1.18.05,1.77.12.07.26-.08.41.07s.09.15.12.21c0,.28-.2.4-.27.66-.1,0-.12-.17-.24-.1A47.41,47.41,0,0,1,95,139.58c-.88.06-1.77.1-2.66.12a.35.35,0,0,1,.1.11c0,.12.08.23,0,.33a.5.5,0,0,1-.3.46.58.58,0,0,0,0,.32.7.7,0,0,1,0,.49c-.12,0-.14.12-.25.14s0,.11-.06.14.09-.21,0-.23l0,.18s0-.1,0-.15-.16.06-.17.13,0-.12,0-.17-.05.08-.13.05a.4.4,0,0,1,0,.45c-.08.06-.12.19-.22.19h.23c.69,0,1.37,0,2.06-.06a.68.68,0,0,1-.12-.42.58.58,0,0,0,.18-.2,1.52,1.52,0,0,0,0-.37c0-.13.17-.16.24-.23l0,0c.09,0,.17,0,.26-.06l.16.05a.23.23,0,0,1,.11.09c.13.09.06.31.07.44a1.06,1.06,0,0,1-.26.53,1.2,1.2,0,0,0-.26.18l.66,0A49.85,49.85,0,0,0,137,112.8ZM42,91.68v0h0v0Zm0-.13h0Zm.17-.49c0-.06,0-.21-.09-.18s0,.09,0,0-.07-.14,0-.25,0-.18.1-.23.1-.07.14-.11c.16.13.16-.1.33,0s.09,0,.13.08,0,.28,0,.45c-.07,0-.11-.07-.16,0s0,0,0,0-.07,0-.1.06,0,.08,0,.11-.13-.13-.15,0l0,.08c-.08,0,0-.15-.14-.14l0,.09s0-.11,0-.1S42.2,91,42.15,91.06Zm.23,1.15a0,0,0,0,0,0,0s0,0,.08,0a.32.32,0,0,0,0-.09s0,.06,0,.09h0a0,0,0,0,0,0,0,.18.18,0,0,1-.07,0,0,0,0,0,1,0,0h0l0,0a0,0,0,0,0,0,0,.08.08,0,0,1,0-.09h0a.07.07,0,0,1,.08,0l0,0a.15.15,0,0,0,0-.07c-.05,0,0,0-.06,0a.1.1,0,0,0,0,.09Zm.66.61a.24.24,0,0,1-.06.08A.21.21,0,0,1,43,93s0-.17-.07-.16l0,.14s0-.08,0-.11-.1.08-.09.13,0-.08,0-.13,0,.07-.08.07a.3.3,0,0,1,.14.31c0,.06,0,.18-.12.19s-.07-.09-.12,0a.22.22,0,0,0,0,.21s-.06,0-.08,0,0-.07-.07-.08a.36.36,0,0,1,0,.27s-.12,0-.14-.1a.18.18,0,0,1,0-.16c0-.05.09,0,.12,0s-.14-.12-.13-.23a.24.24,0,0,1,.07-.19c0-.06.11,0,.17,0a.21.21,0,0,1,.13-.15h.06c0-.16-.12-.3-.07-.46s0-.16.1-.19.11,0,.16,0,0-.13-.06-.14,0,.08,0,.08a.29.29,0,0,1-.11-.21s0,0-.07,0-.15-.29,0-.44.05-.11.07-.15a.24.24,0,0,1,.28.06c0,.08.11.15.06.23a.4.4,0,0,1-.1.41.65.65,0,0,0,.14.29.41.41,0,0,1,.09.26A.11.11,0,0,0,43,92.82ZM69.76,135h0a.13.13,0,0,1,.09.13v.07a.18.18,0,0,0,0-.14c-.09,0,0,0-.07-.05h0Zm-.13.19v-.05s0,0,0,0l0,.08v0c.06,0,0,.11.09.11a.32.32,0,0,0,.12-.11s-.09.07-.12.11h0l0,0a.2.2,0,0,1-.06-.13h0Zm-4.69-1.45a.12.12,0,0,1,.13.13.34.34,0,0,1-.18.21c-.07,0-.13-.12-.09-.2S64.87,133.71,64.94,133.7Zm-20-25a.09.09,0,0,1,0,.07h0s0-.08,0-.09S44.89,108.73,44.9,108.74Zm-.09,0s0,.06,0,.06h0a0,0,0,0,1,0,0S44.78,108.79,44.81,108.76Zm-1.22-4h0c0-.08-.15-.07-.19-.14h0a.2.2,0,0,1,0-.15v-.12c.06-.1.11-.26.26-.23l.09.07a.62.62,0,0,1,.09.37A.29.29,0,0,1,43.59,104.8Zm.54-2.34a.21.21,0,0,1,0,.19h0c-.06,0-.12,0-.14-.08s0-.1,0-.13a.07.07,0,0,1,.06,0A.06.06,0,0,1,44.13,102.46Zm45.24-58.2a.22.22,0,0,1-.21,0h0c0-.06,0-.13,0-.19h0a.21.21,0,0,1,.06-.1l.07-.07.11,0h.07a.2.2,0,0,1,.09.05V44A.42.42,0,0,1,89.37,44.26Zm1.27-.85a.09.09,0,0,1,0-.11s0-.06.09-.06.06,0,.06.08A.18.18,0,0,1,90.64,43.41Zm2.4.44h0Zm.08.6v-.07s0,0,0,0a.1.1,0,0,0-.07,0v0s0,0,0,.06,0,0,0,0l.08,0-.07,0h0s0,0,0,0,0,0,0,0l0,0s0,0,0,0h0a.1.1,0,0,1,.07,0h0a.06.06,0,0,1,0,0h0s0,0,0,0,0,0,0,0Zm0-.67h0v0Zm.92,0c-.05,0,0-.11-.12-.08s0,0,0,0-.07,0-.11,0,0,.07,0,.09,0-.15-.09-.09l0,.07c-.05,0,.06-.12,0-.17l-.08,0s.08-.06,0-.09,0,0-.08,0,.14-.11,0-.16,0,.07,0,0,0-.13.14-.16.08-.14.2-.09.1,0,.14,0c0,.17.16,0,.24.15s0,.09,0,.13S94.11,43.62,94,43.75Zm1.26.85s0,0,0,0h0c0-.05,0,0,0-.06s0,0-.05,0,0,.09,0,.07h0s0-.08,0-.09.09,0,.08,0Zm.34-.49h0s0,0,0-.06,0,0,0,.06h0Zm0,0h0s0-.06,0-.08,0,0,0,0A.05.05,0,0,1,95.69,44.11ZM113.17,48c-.06,0-.12,0-.13-.09a.22.22,0,0,1,0-.14.1.1,0,0,1,.13,0A.28.28,0,0,1,113.17,48Zm10.17,8.18s-.08,0-.08-.09,0-.07,0-.09a.05.05,0,0,1,.08,0A.19.19,0,0,1,123.34,56.2Zm1.8,1.1,0,.06s-.09,0-.13,0,0-.08-.09-.08-.11-.21-.07-.33a0,0,0,0,1,0,0,.2.2,0,0,1,.27-.16.34.34,0,0,1,.14.31A1.62,1.62,0,0,1,125.14,57.3ZM127,60.05h0s0,0,0,0,0,0,0-.07,0,.05,0,.07h0s0,0,0,0Zm0,0h0s0-.08,0-.1,0,0,0,0S127.08,60,127.07,60.05Zm3.36,2.81c-.05-.1-.21-.1-.27-.2a.32.32,0,0,1,0-.21,1.09,1.09,0,0,1,0-.18c.08-.12.17-.35.38-.29l.11.11a.74.74,0,0,1,.09.52A.37.37,0,0,1,130.43,62.86Zm9.22,33.2a.82.82,0,0,0,.26-.2,1.63,1.63,0,0,0,.08-.43l0-.05c.09-.1.25-.1.33-.17s.21,0,.32,0,.24.1.27.24,0,.37,0,.52a1.25,1.25,0,0,1-.43.56c-.19,0-.37.18-.58.24l-.13,0c0,.09-.09.11-.1.2s-.09.1-.15,0,.19-.21.15-.38S139.57,96.22,139.65,96.06Z"/><polygon points="41.97 79.49 39.79 78.94 38.7 83.19 27.77 80.4 28.78 76.44 26.57 75.88 24.93 82.28 40.26 86.19 41.97 79.49"/><polygon points="48.12 56.42 52.58 52.23 55.81 55.68 57.56 54.03 54.32 50.59 58.71 46.47 57.2 44.85 46.6 54.8 48.12 56.42"/><polygon points="45.88 53.26 48.18 51.1 47.72 45.27 53.51 46.09 55.8 43.94 46.52 42.55 45.06 43.92 45.88 53.26"/><path d="M73.44,30.38l.2,1a2.47,2.47,0,0,0,.52,1.11,3.08,3.08,0,0,0,.82.7c.06,0,.1.07.15.1a4,4,0,0,0,1.3.41,4.34,4.34,0,0,0,1.39,0,.23.23,0,0,1,0-.2.23.23,0,0,1,.28-.22.36.36,0,0,1,.19.31,2.8,2.8,0,0,0,.31-.09.15.15,0,0,1,0-.13c0-.05.09,0,.12,0a.29.29,0,0,1-.12-.23.33.33,0,0,1,.08-.18c.06-.05.11,0,.17,0a.19.19,0,0,1,.12-.14H79c0-.15-.09-.29,0-.43s0-.16.11-.18.11,0,.15,0,0-.12-.05-.14,0,.08,0,.08a.33.33,0,0,1-.09-.21s0,.05-.07.05c0-.15-.13-.29,0-.42s.06-.11.08-.14a.22.22,0,0,1,.26.08c0,.07.1.14,0,.22a.38.38,0,0,1-.12.37c0,.2.21.34.18.54-.08,0-.07.1-.14.14s0,.08,0,.11,0-.16-.06-.16l0,.13s0-.07,0-.1-.1.07-.09.12,0-.08,0-.12,0,.06-.07.06a.27.27,0,0,1,.11.29c0,.06,0,.16-.13.17l.27-.12a4.26,4.26,0,0,0,1.09-.87,1,1,0,0,0,.08-.11,0,0,0,0,1,0,0c0-.1.11-.14.13-.22l.09,0a3.64,3.64,0,0,0,.36-.71c0-.06,0-.12,0-.17a2.33,2.33,0,0,0,0-1.05l-.21-1.11a2.39,2.39,0,0,0-.53-1.11,3.17,3.17,0,0,0-1-.79,4.06,4.06,0,0,0-1.33-.41,4.29,4.29,0,0,0-1.47,0l-.11,0a4.37,4.37,0,0,0-1.21.45,3.71,3.71,0,0,0-1,.83A3.3,3.3,0,0,0,73.54,29,2.45,2.45,0,0,0,73.44,30.38ZM80.93,30a.06.06,0,0,1,0,.06h0s0-.07-.05-.07A0,0,0,0,1,80.93,30Zm-.05.08s0,0,0,0,0,0,0,0h0s0,0,0-.05S80.86,30,80.88,30Zm0,.64s.08-.07.1,0,0,0,0,0,0,0,0,0v0s0-.06,0-.06,0,0,0,.06,0,.09.06.05l0,0S80.82,30.7,80.83,30.67ZM76,32.86c-.05,0-.1,0-.11-.09a.21.21,0,0,1,0-.11.08.08,0,0,1,.1,0A.2.2,0,0,1,76,32.86Zm2.4-1.26v0h0v0Zm0-.12h0Zm.34.64v0s0,0,.07,0,0-.06,0-.09,0,.06,0,.09h0s0,0,0,0a.07.07,0,0,1-.06,0h0v0s0,0,0,0a.11.11,0,0,1,0-.09h0a.1.1,0,0,1,.08.05v0a.22.22,0,0,0,0-.06s0,0-.05,0a.16.16,0,0,0,0,.09Zm-3.07-2.34a1.44,1.44,0,0,1,.18-.4.75.75,0,0,1,.07-.12,1.84,1.84,0,0,1,.44-.39,2,2,0,0,1,.6-.23,1.62,1.62,0,0,1,.62,0,1.44,1.44,0,0,1,.56.2c.07.05.12.12.19.18a1,1,0,0,1,.22.2,1.16,1.16,0,0,1,.23.52l.07.35a1.23,1.23,0,0,1,0,.27s.09-.08.17-.05.09.05.12.08,0,.27,0,.43c-.07,0-.11-.07-.17,0s0,0,0,.05-.07,0-.1.05,0,.08,0,.1-.11-.12-.14,0l0,.07c-.08,0,0-.14-.12-.14l0,.09a.17.17,0,0,1,0-.07,1.74,1.74,0,0,1-.1.19,1.1,1.1,0,0,1-.25.23c-.07.05-.11.12-.19.17a1.7,1.7,0,0,1-.58.22,1.73,1.73,0,0,1-.64,0,1.64,1.64,0,0,1-.55-.2,1.57,1.57,0,0,1-.43-.38,1.29,1.29,0,0,1-.23-.52l-.06-.35A1.18,1.18,0,0,1,75.73,29.78Z"/><path d="M81.93,28.63l.43,2.24,1.54-.29.6-.12.4,2.09h0L85,33l-.2,0a.6.6,0,0,1-.25.13h0a.18.18,0,0,0,0-.07l-.2,0-2.81.54-1.7.33-6.16,1.18L74,37.28l4.25-.81h.08l.43,2.27L81,38.3l-.41-2.13,0-.14,4.81-.92.37,1.94.33,1.73-2,.38a.65.65,0,0,0-.07.21c-.09,0-.11-.14-.21,0s0,0,0,.06-.1,0-.16,0,0,.11,0,.15-.09-.21-.17-.08v.11c-.09,0,0-.2-.09-.23l-.09.09s0-.1,0-.13h-.07s0,0,0,0,0,0,0,0l-5.4,1-.1-.49-.21-1.08-2.32.44L75.9,43l1.92-.37,5.14-1a.65.65,0,0,1,.1-.36c.06-.07.1-.19.22-.18s.14,0,.19.07.06-.15,0-.2,0,.12,0,.1a.42.42,0,0,1,0-.31s-.06,0-.1,0c.06-.19,0-.42.15-.55,0-.08.11-.11.16-.15a.33.33,0,0,1,.3.21c0,.11.06.22,0,.31a.52.52,0,0,1-.32.43,1,1,0,0,0,0,.48L86.2,41l2.64-.5-1.5-7.85-1.5-7.85-2.33.45.57,2.93-.53.1ZM77.72,42.48a.32.32,0,0,1-.3.1c0-.09-.13-.15-.14-.24a.36.36,0,0,1,0-.18l.07-.13c.11-.07.25-.22.39-.11l0,.13A.66.66,0,0,1,77.72,42.48Zm1.35-1.85s-.11-.07-.1-.15,0-.1.1-.12a.1.1,0,0,1,.12.08A.28.28,0,0,1,79.07,40.63Zm3.62-.6h0v0h0Zm0-.05s0,0,0,0S82.68,40,82.68,40Zm.08-.1h0l0,0ZM83,41h0l0,0a.15.15,0,0,1-.06-.09,0,0,0,0,1,0,0v0s0,0,0,0,0,0,0,0a.64.64,0,0,1,0,.07,0,0,0,0,0,0,0S83,41,83,41a.39.39,0,0,0,.08-.1Zm.06-.22c-.07,0,0,0-.07,0h0s0,0,0,0h0a.13.13,0,0,1,.09.09v.06A.13.13,0,0,0,83.07,40.73ZM86.56,39a.11.11,0,0,1,0,.08s0-.1,0-.11A0,0,0,0,1,86.56,39Zm-.11,0s0,.06,0,.08h0s0,0,0,0,0,0,0,0h0S86.41,39,86.45,39Zm-.31.88s.12-.06.13,0a.05.05,0,0,1,0,0,0,0,0,0,0,0,0l0,0c-.06-.06.06-.07,0-.09s0,0-.07,0,0,.14.06.1l-.06,0A.12.12,0,0,1,86.14,39.84Zm-.42-10.33a.13.13,0,0,1,.19.06.39.39,0,0,1-.07.3c-.09,0-.18-.05-.19-.15S85.66,29.56,85.72,29.51Z"/><path d="M99,35.82l4.15-5.44.9-1.17.26.92,2,7.08,2.91.54L107,29.56l-.51-1.9v0c-.18.16-.27.46-.5.59,0,.1,0,.15,0,.23s0,.14-.13.11.07-.29,0-.42-.32-.3-.33-.48a.79.79,0,0,0,.13-.31,2.3,2.3,0,0,0-.14-.42c0-.18.18-.26.21-.39s.21-.08.29-.17h.11l-2.68-.51a.53.53,0,0,1,.1.06c0,.13.18.24.1.38a.62.62,0,0,1-.17.66c0,.34.4.56.38.91-.15,0-.12.19-.23.26a.36.36,0,0,1,0,.18c-.07-.05,0-.27-.12-.26l0,.22s0-.11-.06-.16-.17.12-.15.21,0-.15,0-.22,0,.12-.13.12a.46.46,0,0,1,.22.5c-.07.1-.06.29-.19.31S103,28.93,103,29a.39.39,0,0,0-.08.33c0,.08-.09,0-.13,0s-.06-.11-.11-.12a.58.58,0,0,1,0,.43c-.08,0-.2-.08-.24-.16a.34.34,0,0,1,0-.26c0-.09.15,0,.21,0a.5.5,0,0,1-.23-.39.53.53,0,0,1,.11-.31c.1-.09.19,0,.3,0a.3.3,0,0,1,.2-.25h.1c0-.25-.19-.49-.12-.74s0-.28.18-.32.18,0,.26,0,0-.2-.1-.23.06.14,0,.14a.5.5,0,0,1-.18-.35c-.08,0,0,.08-.12.09,0-.25-.24-.48-.07-.73,0-.1.09-.18.12-.24s0,0,.08,0l-.12,0-4,5.39-3,4Zm3.66-9h0s0,0,0,0,.12,0,.14.07l0,.06a.19.19,0,0,0-.08-.1c-.08.05,0,0-.1,0h0Zm0,.15s0,.06,0,.09a0,0,0,0,1,0,0c.07,0,.08.1.14.05a.29.29,0,0,0,0-.16c0,.05,0,.11,0,.16h0a.06.06,0,0,0,0,0,.24.24,0,0,1-.13-.09h0v0l0-.05S102.59,27,102.59,27ZM101,29.54a.39.39,0,0,1,.47-.4.63.63,0,0,1,.37.55,2.21,2.21,0,0,1-.15.5c-.07.09-.18,0-.25.12s-.1-.13-.19-.12C101.18,30,101,29.8,101,29.54Z"/><rect x="100.74" y="33.44" width="2.21" height="14.53" transform="translate(42.94 133.22) rotate(-79.3)"/><polygon points="112.63 37.05 118.55 40.06 119.5 38.19 115.84 36.33 116.41 35.22 119.55 36.82 120.44 35.07 117.29 33.47 117.9 32.28 121.3 34.01 122.26 32.13 116.6 29.25 112.63 37.05"/><path d="M111.05,44.26l5.63,2.87c0-.07,0-.15.1-.18s.13,0,.18,0,0-.15-.07-.16,0,.09,0,.1a.38.38,0,0,1-.13-.25s0,.06-.08.07c0-.18-.18-.33-.06-.51,0-.06.06-.12.08-.17a.28.28,0,0,1,.32.07c0,.08.13.15.08.26a.45.45,0,0,1-.11.46c0,.22.27.37.28.6l2.18,1.11,2,1,7.25-14.24-2.09-1.07-1.49,2.92-1.21-.61,1.49-2.92-2.05-1-4.06,8,2,1,1.56-3.06,1.2.62-2.06,4-9.32-4.74L110,43.73Zm4.85,2s0,0,0,0S115.9,46.22,115.9,46.23Zm0,0v0h0v0Zm0-.15h0Zm.58.79h0s0,0,0,0-.06,0-.08-.06h0s0,0,0,0,0,0,0,0,0,0,0,.06h0s0,.07.09,0a.26.26,0,0,0,0-.11S116.51,46.87,116.51,46.91Zm0-.21s0,0-.06,0h0a.09.09,0,0,1,.11,0l0,0A.15.15,0,0,0,116.47,46.7Zm2.64.52c-.13.12-.18.32-.34.42,0,.07,0,.11,0,.16s0,.1-.08.08,0-.2,0-.29-.22-.2-.24-.33a.4.4,0,0,0,.09-.21,2.11,2.11,0,0,0-.1-.3c0-.12.11-.18.14-.27s.14-.06.19-.13.18,0,.25,0,.14.22.18.32A.86.86,0,0,1,119.11,47.22Zm-5.26-5.87,3,1.53,1.8.91L121.08,45l-.82,1.61-1.06-.54-2.43-1.24c0,.13,0,.25,0,.39s-.14-.07-.2,0,0,0,0,.05-.08,0-.12.07,0,.09,0,.12-.15-.14-.17,0l0,.09c-.09,0,0-.18-.16-.16l0,.11s0-.13,0-.12,0,.08-.06.1,0-.24-.11-.2,0,.11,0,0-.09-.16,0-.28,0-.21.1-.27c0-.09.12-.08.15-.12s.17,0,.24,0l-.72-.37h0a.55.55,0,0,0,0,.22.44.44,0,0,1,.16.25.74.74,0,0,0,0,.19s0,0,0,0,0,.12-.1.16-.05-.19-.17-.16.11.19.08.25a.23.23,0,0,0-.07-.1c-.09.07,0,.19,0,.27s.16.17.1.28a3.59,3.59,0,0,1-.61-.73,2.37,2.37,0,0,1-.35-.92.27.27,0,0,1,0-.16l-.57-.29L113,43Z"/><path d="M131.79,40.41l1.64,1.53L129.9,45.7l-1.63-1.54-1.57,1.66,8.1,7.61,1.52,1.43,1.57-1.67-.41-.38-1.12-1.05.09-.1.83-.88c0-.05,0-.13-.1-.11a.33.33,0,0,0-.18.22c-.05,0-.08,0-.1,0a.2.2,0,0,0,0-.13c0,.12-.09.23-.17.32s-.12-.14-.12-.22a.28.28,0,0,1,.12-.18c.07-.05.11,0,.16,0a.4.4,0,0,1,0-.37.43.43,0,0,1,.21-.19c.11,0,.15.05.22.11a.28.28,0,0,1,.25-.11l.07.05c.06-.21,0-.44.2-.6s.13-.19.26-.16.15,0,.19.09.08-.15,0-.21,0,.12-.06.1a.47.47,0,0,1,0-.33c-.05,0-.06,0-.11,0,.09-.19,0-.45.22-.57,0-.09.14-.1.19-.13a.32.32,0,0,1,.3.25c0,.12,0,.25-.07.33a.56.56,0,0,1-.39.42.58.58,0,0,0,0,.32l1.59-1.7,1.38,1.31.14.13L143,47.76l-1-.94L140.07,45l-6.71-6.3Zm10,7.06a.08.08,0,0,1,0,.08s0-.11,0-.13A0,0,0,0,1,141.79,47.47Zm-.12,0s0,.07,0,.09h0s0,0,0,0,0,0,0,0h0a0,0,0,0,1,0,0S141.63,47.49,141.67,47.46Zm-.43.91s.14,0,.14,0,0,0,0,.05,0,0,0,0h0c-.05-.06.07-.06,0-.1s-.05,0-.08,0,0,.15.05.11l-.07,0C141.17,48.48,141.21,48.4,141.24,48.37Zm-9.3,1.85a.37.37,0,0,1-.34.07h0c0-.1-.11-.17-.11-.28h0a.29.29,0,0,1,0-.18.38.38,0,0,1,.09-.13c.12-.07.28-.21.42-.07l0,.14A.74.74,0,0,1,131.94,50.22Zm4.17.54a1.76,1.76,0,0,1-.3.31c-.09,0-.15,0-.24,0s0-.14-.09-.17-.1-.42.07-.58a.33.33,0,0,1,.5-.12A.54.54,0,0,1,136.11,50.76Zm1.42-2.58h0v0h0Zm0-.06s0,0,0,0S137.53,48.11,137.53,48.12Zm.09-.1h0v0Zm.15,1.17h0l0,0a.12.12,0,0,1-.05-.1h0V49l0,0,0,.07a0,0,0,0,0,0,0s0,.09.08.08a.28.28,0,0,0,.09-.1S137.79,49.16,137.77,49.19Zm.11-.12a.22.22,0,0,0,0-.11c-.08,0,0,0-.07-.05h0a0,0,0,0,1,0,0h0s.08.06.08.1Zm1.28-2.21c.08,0,.09.12.11.18,0,.24-.16.35-.22.58-.09,0-.1-.16-.22-.08s0,.05,0,.07-.12,0-.17,0,0,.13,0,.16-.08-.24-.18-.11v.12c-.1,0,.05-.21-.07-.26l-.11.1s.1-.13,0-.16,0,.08-.12.07.17-.24,0-.28-.05.13-.07,0c.14-.09,0-.23.14-.31s.08-.24.28-.22c0-.1.16,0,.22,0C138.84,47,139,46.69,139.16,46.86Zm-1.74-1.17a4.68,4.68,0,0,1,.16-.67c.16-.34.56-.25.81-.42.06-.07.12,0,.18,0h0a.43.43,0,0,0-.15.15s.07,0,.08,0c.13.16.09.37.27.49l-.09,0a3.2,3.2,0,0,1,0,.44c-.15.06-.06.22-.17.29l-.06,0c-.06.06-.09.16-.14.22a.45.45,0,0,1,0,.36l-.14.19a.06.06,0,0,0,0-.08c-.09,0-.1.1-.2.1s.06-.22-.09-.26,0,.27-.06.32a.19.19,0,0,0,0-.15c-.14,0-.1.2-.13.3s.07.26-.05.35a4.94,4.94,0,0,1-.15-.55l-3,3.2-2.35-2.21-.33-.31.6-.64,2.93-3.12Z"/><path d="M135.81,65.19l1.19,2,2.77-1.65,1-.61,3.11,5.24,1.25-.74a.53.53,0,0,1-.11-.44.37.37,0,0,1,.39-.37l-3.7-6.24-1.8-3-.5-.83a.85.85,0,0,1-.09.41c-.16.16-.24.43-.45.57,0,.08,0,.14,0,.21s0,.13-.11.1.06-.26-.06-.39-.3-.27-.32-.44a.69.69,0,0,0,.12-.29,2.35,2.35,0,0,0-.14-.4c0-.16.16-.24.19-.36s.19-.08.26-.17a.75.75,0,0,0,.15,0l-.69-1.15-1.67,1a.16.16,0,0,1,0,.15.78.78,0,0,1,0,.22l1.81,3,1.08,1.82.06.1-.34.2Z"/><path d="M142.87,62.16l3.22,5.42.83-.5c0-.1,0-.24.17-.28s.17,0,.25,0,0-.19-.1-.22,0,.13,0,.13a.47.47,0,0,1-.17-.33c-.07,0-.05.07-.11.08,0-.24-.23-.46-.07-.69,0-.09.09-.17.12-.23a.37.37,0,0,1,.31,0l-.52-.87c0,.06.06.12.05.16s-.2-.2-.23,0l0,.12c-.13,0-.06-.24-.21-.22l-.06.15s0-.18-.07-.16,0,.1-.09.13.05-.33-.14-.28,0,.15-.06.07c.1-.16-.12-.23,0-.39s-.05-.28.16-.36c0-.06,0-.09.08-.11l-.44-.73a.14.14,0,0,1,0,.11h-.08c0,.09,0,.21,0,.3a.51.51,0,0,1,.21.35,1.38,1.38,0,0,0,0,.26s0-.06-.06-.08,0,.16-.14.21-.06-.25-.23-.22c0,.12.15.27.11.35a.26.26,0,0,0-.09-.14c-.13.09,0,.25,0,.37s.2.23.12.38a4.2,4.2,0,0,1-.8-1,3.45,3.45,0,0,1-.45-1.28c0-.43.44-.54.61-.85,0,0,0,0,.06-.06h0l-2.12-3.58.88-.53,2.31,3.89L148.76,66l1.54-.91.22-.13-.38-.64-1.92-3.23-2.67-4.5.92-.54,2.86,4.82.17.29,1.94,3.26.53-.32,1.24-.73-1-1.75L147,52.81,139.83,57Zm3.71,4.27h0v0a.14.14,0,0,1,.13.07l0,.05a.22.22,0,0,0-.08-.09c-.07,0,0,0-.09,0a0,0,0,0,0,0,0Zm0,.14s0,.05,0,.08l0,0c.06,0,.07.09.12,0a.3.3,0,0,0,.05-.15.74.74,0,0,1,0,.14h0a0,0,0,0,1,0,0,.21.21,0,0,1-.11-.08s0,0,0,0v0s0,0,0,0S146.55,66.58,146.55,66.57Zm-.58-1,0,0h0Zm0,.19v0h0v0Zm0,0s0,0,0,0S145.91,65.76,145.92,65.77Zm3.85-1.66c0-.07.11-.13.16,0s0,.05,0,.07,0,0,0,0v0c-.09,0,0-.1-.07-.09s0,.06-.06.09.08.16.11.09l-.06,0C149.76,64.26,149.75,64.16,149.77,64.11Zm1.53-.49a.23.23,0,0,1,.06-.12l.07-.09c.09,0,.22-.11.3,0l0,.1a.57.57,0,0,1-.15.3.29.29,0,0,1-.24,0h0c0-.08-.07-.14-.06-.21Z"/><path d="M154.92,70.47a4.12,4.12,0,0,0-1.47-.54,4,4,0,0,0-1.62.08l-7.62,2a3.9,3.9,0,0,0-1.46.71,4.18,4.18,0,0,0-1,1.19,3.92,3.92,0,0,0-.5,1.49,4.15,4.15,0,0,0,.1,1.64,4.31,4.31,0,0,0,.7,1.5,4.25,4.25,0,0,0,1.17,1.07,4.17,4.17,0,0,0,1.48.54,3.88,3.88,0,0,0,1.62-.08l4-1,.71,2.72-7.89,2,.14.54.45,1.77,4-1,11.5-3-.59-2.31-5.45,1.41-.7-2.72,1.52-.39a3.84,3.84,0,0,0,1.46-.72,4,4,0,0,0,1-1.19,4.17,4.17,0,0,0,.51-1.5,4.33,4.33,0,0,0-.81-3.14A4.06,4.06,0,0,0,154.92,70.47Zm-.36,3.85a1.74,1.74,0,0,1-.21.63,1.7,1.7,0,0,1-1,.79l-7.63,2a1.7,1.7,0,0,1-.67,0,1.67,1.67,0,0,1-.61-.23,1.81,1.81,0,0,1-.62-2.41,1.62,1.62,0,0,1,1-.8l7.62-2a1.58,1.58,0,0,1,.68,0,1.56,1.56,0,0,1,.62.23,2,2,0,0,1,.49.46,1.79,1.79,0,0,1,.34,1.33Z"/><path d="M28.92,112.35a3.29,3.29,0,0,0,1,.81,3.94,3.94,0,0,0,1.32.38,3.84,3.84,0,0,0,1.46-.11l5.06-1.33,1.33-.35a4.05,4.05,0,0,0,1.31-.62,4.13,4.13,0,0,0,1-1,3.2,3.2,0,0,0,.35-.69,2.54,2.54,0,0,1-.36-.74,2.2,2.2,0,0,1-.12-.91c0-.29.35-.3.51-.48v0l-1.55-5.87-7.86,2.07-3.2.85c.1,0,.21-.07.33,0s.07.11.1.16c0,.23-.15.33-.21.54-.09,0-.09-.15-.21-.07s0,0,0,.06-.11,0-.16,0,0,.12,0,.15-.06-.22-.16-.1v.11c-.09,0,.05-.2-.07-.24l-.1.08s.09-.11,0-.14,0,.07-.11.06.16-.22,0-.26,0,.12-.08,0c.14-.08,0-.21.14-.29h0l-.52.14c0,.07,0,.15-.05.2s0-.12,0-.18l-1.34.36.67,2.52a.36.36,0,0,1,.15-.12c.1,0,.14,0,.2.11a.25.25,0,0,1,.24-.1l.06,0c.06-.19.05-.4.19-.55s.13-.18.24-.15.14,0,.18.09.08-.14,0-.2,0,.12-.06.09a.42.42,0,0,1,0-.31c-.05,0-.06,0-.11,0,.09-.17,0-.42.22-.53,0-.08.13-.09.17-.12a.32.32,0,0,1,.28.24c0,.11,0,.23-.07.3s-.18.37-.36.39c-.11.24.07.54-.07.77-.12,0-.15.08-.26.09a.2.2,0,0,1-.08.12c0-.06.12-.18,0-.22l-.05.16s0-.09,0-.13-.16,0-.18.09,0-.11.05-.16-.06.06-.13,0a.36.36,0,0,1,0,.43c-.08,0-.15.17-.25.14s0-.14-.1-.12a.3.3,0,0,0-.14.13l.27,1,.55,2.1A3.06,3.06,0,0,0,28.92,112.35ZM39,111.12c-.05,0-.1-.05-.1-.11s0-.09.06-.12a.08.08,0,0,1,.11,0A.24.24,0,0,1,39,111.12ZM31.94,105a.09.09,0,0,1,0,.08h0c0-.05,0-.11,0-.12A0,0,0,0,1,31.94,105Zm-.11,0s0,.07,0,.08h0s0,0,0,0h0s0,0,0,0S31.79,105,31.83,105Zm-.41.84s.13,0,.13,0,0,0,0,0,0,0,0,0h0c-.05-.06.07-.06,0-.09s-.06,0-.08,0,0,.15.05.11h-.07S31.39,105.82,31.42,105.79Zm-1.56,2.15a.51.51,0,0,0,.2-.16s0,0,0-.07l-.23-.9,1.69-.45,6.87-1.81.72,2.72.1.36a1.38,1.38,0,0,1,0,.57,1.41,1.41,0,0,1-.22.52,1.55,1.55,0,0,1-.4.41,1.67,1.67,0,0,1-.54.25l-.27.07-5.3,1.4a1.68,1.68,0,0,1-.62.06,1.47,1.47,0,0,1-.55-.17,1.54,1.54,0,0,1-.43-.34,1.26,1.26,0,0,1-.26-.5l-.07-.27-.32-1.2a.78.78,0,0,1-.27.09c0,.07-.07.08-.08.16s-.07.08-.12,0,.15-.17.12-.31A.71.71,0,0,1,29.86,107.94ZM28,105.59h0v0h0Zm0,0s0-.05,0,0S28,105.52,28,105.54Zm.09-.1h0v0Zm.13,1.1h0s0,0,0,0a.16.16,0,0,1-.05-.1h0v0s0,0,0,0,0,0,0,0a.14.14,0,0,0,0,.07v0s0,.09.07.08a.16.16,0,0,0,.09-.09S28.21,106.5,28.19,106.54Zm.1-.12a.2.2,0,0,0,0-.1c-.07,0,0,0-.06,0h0s0,0,0,0h0a.11.11,0,0,1,.07.1Z"/><path d="M36.94,125.54l-3.11-6.25,3.11-1.55L40.05,124l2.09-1L39,116.7l3.1-1.54,3.11,6.25,2.12-1.06L43.68,113l-.61-1.23-1,.5s0,0,0,0,0,0-.06,0l-.09,0a.61.61,0,0,1,0,.12s-.06,0-.08-.05l-1.13.56-10.11,5,4.29,8.62Z"/><path d="M43,136.63l3.83-4.83s0-.06,0-.09a2.92,2.92,0,0,1,0-1.18c.12-.36.52-.32.75-.51,0-.08.12,0,.18,0h0a.31.31,0,0,0-.14.16c0,.05.07,0,.08,0a1.33,1.33,0,0,1,.18.3l.32-.4,3.34-4.22-1.64-2.12L36.6,129.46l1.52,2,2-.91,1.8,2.33.51.65-.76.93-.63.77.42.56.05.06c.11-.08.25-.23.4-.11l.06.13a.71.71,0,0,1-.1.45l.16.2.52.67Zm.32-2.31c-.06,0-.12-.08-.11-.16s0-.11.11-.14a.1.1,0,0,1,.12.09A.3.3,0,0,1,43.29,134.32ZM42.37,130l-.3-.4.39-.17.49-.23,4.49-2,.08.1-1.93,2.34-1.81,2.2Z"/><path d="M57.59,139.83l-3.54-3.07-1.44,1.65,1.77,1.53-1.53,1.75a1.77,1.77,0,0,1-1,.34,1.36,1.36,0,0,1-1-.36l-1.37-1.19a1.46,1.46,0,0,1-.4-.54,1.5,1.5,0,0,1-.13-.62,1.78,1.78,0,0,1,.13-.64,1.91,1.91,0,0,1,.36-.59l.33-.37.67-.78,2.66-3.07a2.27,2.27,0,0,1,.54-.44,1.77,1.77,0,0,1,.61-.21,1.39,1.39,0,0,1,.64,0,1.48,1.48,0,0,1,.58.33l1.31,1.13a1.14,1.14,0,0,1,.45.88,2.3,2.3,0,0,1-.27,1L59,138.23a4.75,4.75,0,0,0,.66-1.36,4.14,4.14,0,0,0,.16-1.43,3.73,3.73,0,0,0-.37-1.37,3.86,3.86,0,0,0-.93-1.19l-1.33-1.15a4,4,0,0,0-1.4-.8,4.12,4.12,0,0,0-1.55-.18,3.92,3.92,0,0,0-1.51.41,3.85,3.85,0,0,0-1.29,1l-.14.16-.08.09a.06.06,0,0,1,.06,0,.08.08,0,0,1,0,.08h0s0-.09,0-.11l-.06.07s0,0,0,.05h0s0,0,0,0,0,0,0,0h0s0,0,0,0l-3.56,4.09a3.34,3.34,0,0,0-.49.71,3.55,3.55,0,0,0-.31.69A4.19,4.19,0,0,0,47,141a4,4,0,0,0,1,1.28l1.07.92a4.5,4.5,0,0,0,.81.56,4.89,4.89,0,0,0,.9.34l-.29.34L52.22,146l1.84-2.11,3.2-3.69Zm-6.79-6.45c.05,0,.13-.07.14,0a.06.06,0,0,1,0,0,0,0,0,0,0,0,0l0,0c-.06-.06.06-.07,0-.09s0,0-.08,0,0,.15.07.11l-.07,0S50.77,133.42,50.8,133.38Zm-1.36,2.48a.52.52,0,0,0,.19-.2,1.56,1.56,0,0,0,0-.37c0-.14.21-.15.28-.24s.18,0,.27-.05.22.05.26.16.06.31.06.45a1,1,0,0,1-.3.52c-.18.08-.33.28-.56.32,0,.08-.07.1-.06.18s-.07.09-.13,0,.14-.2.09-.34S49.4,136,49.44,135.86Z"/><path d="M68.47,139.49,63.68,148a1.64,1.64,0,0,1-.46.52,2.18,2.18,0,0,1-.6.32A1.86,1.86,0,0,1,62,149a1.6,1.6,0,0,1-.66-.21l0,0-1-.58a1.63,1.63,0,0,1-.52-.45,1.56,1.56,0,0,1-.29-.61,1.48,1.48,0,0,1-.06-.47.34.34,0,0,1-.15.06.19.19,0,0,1-.09.11c0-.07.13-.17,0-.22l-.08.16s0-.09,0-.14-.16,0-.18.07,0-.1.06-.15-.07.06-.13,0a.37.37,0,0,1-.08.42c-.09,0-.17.15-.26.11s0-.14-.09-.13a.31.31,0,0,0-.19.18s-.07,0-.09-.06a.15.15,0,0,0,0-.13.39.39,0,0,1-.19.28.23.23,0,0,1-.08-.21.25.25,0,0,1,.12-.16c.07,0,.1.06.15.07a.37.37,0,0,1,0-.34.41.41,0,0,1,.21-.15c.1,0,.13.06.19.12a.24.24,0,0,1,.24-.07l.06.05c.08-.18.1-.39.25-.52s.14-.17.25-.13.11,0,.15.09a.94.94,0,0,1,.06-.15s0,0,0,0,0,.11-.06.09a.37.37,0,0,1,0-.31s-.07,0-.12,0c.11-.16.06-.42.27-.5,0-.08.14-.08.19-.1A.45.45,0,0,1,60,145l.42-.76s0-.07-.13,0,0,.05,0,.06-.1,0-.15,0,0,.11,0,.14,0-.23-.15-.12l0,.11c-.09,0,.07-.19,0-.25l-.11.08c0-.05.1-.11,0-.15s0,.07-.12.06.18-.2,0-.26-.06.11-.07,0,0-.2.17-.26.1-.22.27-.18.16,0,.22,0c.07.25.24,0,.38.19a.11.11,0,0,1,.06.07l.94-1.67,2.72-4.84-1.89-1.07-.06,0h0v0l-.19-.11,0,0-2.87,5.11-2,3.56a3.93,3.93,0,0,0-.5,1.54,4.34,4.34,0,0,0,.08,1.25c0,.1,0,.21.06.31a4.14,4.14,0,0,0,.7,1.39,4.07,4.07,0,0,0,1.23,1.06l1.39.78a3.92,3.92,0,0,0,1.53.49,4.07,4.07,0,0,0,1.56-.12,4.7,4.7,0,0,0,.92-.41,4,4,0,0,0,.46-.3,3.87,3.87,0,0,0,1-1.22l2-3.6,2.85-5.07Zm-9.2,6a.22.22,0,0,0,0-.11c-.08,0,0,0-.06,0h0a.1.1,0,0,1,.06.11Zm-.12-2.67a2.73,2.73,0,0,1,.28-1.07c.19-.29.54-.17.79-.3.06-.06.11,0,.17,0a.31.31,0,0,0-.16.11c0,.05.06,0,.07,0,.1.16,0,.35.19.47,0,0-.06,0-.08,0a2.57,2.57,0,0,1-.06.4c-.14,0-.07.19-.19.25l0,0c-.06,0-.1.14-.15.19a.39.39,0,0,1,0,.33l-.15.15s0,0,0-.07-.1.08-.19.07.07-.19-.06-.25c0,.09,0,.25-.08.29a.22.22,0,0,0,0-.14c-.13,0-.11.17-.15.26s0,.25-.09.32A3.43,3.43,0,0,1,59.15,142.86Zm0,1.67v0l0,0Zm-.07,1s0,0,0,0,0,0,0,0a.14.14,0,0,0,0,.06,0,0,0,0,0,0,0s0,.09.07.08a.26.26,0,0,0,.1-.07s-.07,0-.1.08h0l0,0a.23.23,0,0,1,0-.1h0Zm0-.93s0,0,0,0S59.06,144.58,59.07,144.58Zm0,.07h0v0h0Zm-1.58,2.23a1.26,1.26,0,0,1-.31.25c-.08,0-.13,0-.21,0s0-.12-.07-.16,0-.39.12-.52a.31.31,0,0,1,.48,0A.49.49,0,0,1,57.46,146.88Z"/><path d="M79.49,155.68v2.2l2.41.55-.15-8.82-.09-5.6-.89-.21h0l-.06,0a2.11,2.11,0,0,1,0,.35c-.11.07,0,.18-.11.26l0,0s-.06.14-.09.2.05.18.05.29a.59.59,0,0,0-.1.16s0,0,0-.06-.07.09-.15.1,0-.19-.1-.21,0,.22,0,.27a.19.19,0,0,0,0-.13c-.11,0-.06.18-.08.26s.08.21,0,.29a3,3,0,0,1-.28-.9,2.47,2.47,0,0,1,0-1,.27.27,0,0,1,.09-.12l-.84-.19-2.72,5.27-3.91,7.58,2.42.55,1-2Zm1-10.43c.13-.05,0-.2.2-.2s.14,0,.18-.06c.12.2.22,0,.37.09s.08.09.11.14-.1.29-.13.48c-.08,0-.1-.12-.19,0s0,0,0,.06-.09,0-.13,0,0,.1,0,.13-.08-.18-.15-.07v.1c-.09,0,0-.18-.09-.2l-.08.08s.07-.11,0-.13,0,.07-.09.07.11-.21,0-.23,0,.11-.06,0S80.38,145.33,80.49,145.25Zm-.19,1.61h0s.07,0,.08.08V147a.14.14,0,0,0,0-.09c-.06,0,0,0-.06,0h0Zm-.06.09s0,0,0,.06v0s0,.07.08.06a.18.18,0,0,0,.07-.08s0,.05-.07.08h0l0,0a.1.1,0,0,1-.06-.08h0s0,0,0,0S80.24,147,80.24,147Zm-.14-.8,0,0,0,0Zm-.06.06s0,0,0,0S80,146.21,80,146.21Zm0,.06h0v0h0Zm-1.34,2.54s0-.11-.09-.13-.12-.33,0-.48a.28.28,0,0,1,.4-.14.4.4,0,0,1,.09.17l.28-.58.13,0v.78a.22.22,0,0,1,0-.11c.06,0,.1,0,.14,0a.35.35,0,0,1,0-.3.37.37,0,0,1,.16-.17c.08,0,.12,0,.18.07a.26.26,0,0,1,.2-.11l.06,0c0-.18,0-.37.11-.51s.09-.17.2-.15.12,0,.16.06.05-.13,0-.18,0,.11,0,.09a.32.32,0,0,1,0-.27s-.06,0-.1,0,0-.37.14-.48c0-.08.1-.1.14-.13a.26.26,0,0,1,.26.19c0,.09.06.19,0,.26a.43.43,0,0,1-.27.38c-.07.22.11.46,0,.67-.11,0-.12.09-.22.11s0,.09,0,.11.08-.17,0-.19l0,.15s0-.08,0-.13-.14,0-.15.1,0-.09,0-.14,0,.06-.11,0a.3.3,0,0,1,0,.37c-.06.05-.11.17-.2.15s0-.12-.1-.09a.24.24,0,0,0-.13.19c0,.05-.07,0-.09,0a.15.15,0,0,0,0-.11.37.37,0,0,1-.11.28.15.15,0,0,1-.09-.1v5l-2.73-.63,1.91-3.85.14-.28A.25.25,0,0,0,78.69,148.81Z"/><path d="M93.08,153a3.58,3.58,0,0,0,1.23-.78,3.89,3.89,0,0,0,.84-1.19,3.6,3.6,0,0,0,.34-1.47l0-.61a3.86,3.86,0,0,0-1-2.72,3.64,3.64,0,0,0-1.19-.85,3.86,3.86,0,0,0-1.48-.34l-6-.16-.38,14L88,159l.15-5.67,4.32,5.79,3,.08-4.59-5.92.71,0A3.75,3.75,0,0,0,93.08,153Zm-4.83-2.29.09-3.31,3,.09a1.62,1.62,0,0,1,1.27.49,1.74,1.74,0,0,1,.38,1.21,1.48,1.48,0,0,1-1.74,1.6Z"/><path d="M106.8,156.85a2.56,2.56,0,0,0,.36-.44,3.4,3.4,0,0,0,.49-1.27,4.69,4.69,0,0,0,0-1.58l-.1-.58,0-.28a3.34,3.34,0,0,0-.49-1.28,2.74,2.74,0,0,0-1.06-.93h0a3.42,3.42,0,0,0,.52-1.22,3.56,3.56,0,0,0,0-1.34l-.2-1.12a3.75,3.75,0,0,0-.47-1.33,3.06,3.06,0,0,0-.86-1,3.29,3.29,0,0,0-1.16-.51,3.76,3.76,0,0,0-1.38,0l-6.1,1.05,2.38,13.81,6.28-1.08a3.68,3.68,0,0,0,1.29-.48A2.93,2.93,0,0,0,106.8,156.85Zm-7.69.23a.27.27,0,0,1-.18.13h0c0-.07-.12-.07-.15-.14h0a.17.17,0,0,1,0-.12s0-.07,0-.11.12-.19.24-.15l.07.07A.5.5,0,0,1,99.11,157.08Zm.52-1.54s-.09,0-.1-.08a.21.21,0,0,1,0-.11.07.07,0,0,1,.1,0A.2.2,0,0,1,99.63,155.54Zm-.51-8.38,3.27-.57a1.22,1.22,0,0,1,.54,0,1.52,1.52,0,0,1,.86.69,1.51,1.51,0,0,1,.21.56l0,.21a1.72,1.72,0,0,1,0,.6,1.55,1.55,0,0,1-.21.53,1.41,1.41,0,0,1-.37.4,1.16,1.16,0,0,1-.5.21l-3.28.57Zm2.55,9.41c0,.05-.1,0-.14.06s0-.08-.1-.08-.17-.22-.11-.36a.22.22,0,0,1,.27-.21.36.36,0,0,1,.19.32A.9.9,0,0,1,101.67,156.57Zm3.49-2.4a1.5,1.5,0,0,1-.21.52,1.22,1.22,0,0,1-.31.33s0,.06-.07.07a.47.47,0,0,1-.09.06.58.58,0,0,1-.08.22c-.1.08-.16.24-.3.31,0,0,0,.08,0,.13s0,.07-.07.05,0-.15,0-.23-.16-.18-.16-.28h0l-1.06.18h0s0,.07,0,.1,0-.07,0-.1h0v.07s0,0,0-.07l-.08,0a.09.09,0,0,0,0,.07s0,0,0-.07h-.06a.26.26,0,0,1,.1.28c0,.05-.05.16-.12.17s0-.09-.1-.05a.23.23,0,0,0-.06.18s0,0-.07,0,0-.07-.06-.08a.29.29,0,0,1,0,.24s-.1-.05-.12-.1a.18.18,0,0,1,0-.14s.08,0,.11,0a.27.27,0,0,1-.11-.22.3.3,0,0,1,.08-.17s.1,0,.16,0a.2.2,0,0,1,0-.08l-1.74.3-.55-3.18,1.08-.19s0-.05,0-.08c0-.25.27-.3.38-.47s.08,0,.11,0h0a.2.2,0,0,0-.06.12s0,0,.06,0,.15.19.29.22a.12.12,0,0,0-.05.05.25.25,0,0,1,0,.07l1.6-.27a.95.95,0,0,1,.74.13,1.2,1.2,0,0,1,.3.15,1.3,1.3,0,0,1,.37.43,1.58,1.58,0,0,1,.21.56l0,.15A1.62,1.62,0,0,1,105.16,154.17Zm1,2.18h0a.29.29,0,0,1,.07-.18l.1-.12c.12,0,.3-.16.42,0l0,.14a.79.79,0,0,1-.2.42.37.37,0,0,1-.34,0C106.26,156.53,106.15,156.45,106.16,156.35Z"/><path d="M132.09,145.78,125,143.45l.6-.38a3.75,3.75,0,0,0,1.68-2.39c0-.1,0-.2,0-.3a4,4,0,0,0,0-1.15,3.55,3.55,0,0,0-.55-1.41l-.33-.51a2,2,0,0,0-.21-.28c0,.08.12.16.07.26a.55.55,0,0,1-.12.56c0,.29.36.46.35.76-.13,0-.09.16-.19.23a.2.2,0,0,1,0,.15c-.06,0,0-.23-.11-.21l0,.18s0-.1-.06-.14-.13.11-.11.18,0-.11,0-.17,0,.09-.1.1a.39.39,0,0,1,.2.42c-.06.08,0,.24-.16.26s-.09-.12-.16-.05a.34.34,0,0,0,0,.28c0,.07-.08,0-.11,0a.19.19,0,0,0-.1-.1.47.47,0,0,1,0,.37.26.26,0,0,1-.21-.13.28.28,0,0,1,0-.22c0-.08.12,0,.17,0a.41.41,0,0,1-.21-.31.46.46,0,0,1,.09-.27c.08-.08.15,0,.25,0a.25.25,0,0,1,.16-.22h.08c0-.21-.17-.41-.12-.62s0-.24.14-.27.15,0,.22,0,0-.17-.1-.19.06.11,0,.12a.46.46,0,0,1-.17-.29c-.06,0,0,.07-.09.08,0-.22-.22-.4-.09-.62,0-.08.07-.15.1-.21a.34.34,0,0,1,.37.07,3.55,3.55,0,0,0-.74-.71s0,0,0,0l0,.11c-.1,0-.06-.21-.19-.19l0,.14s0-.16-.07-.14,0,.09-.07.12,0-.29-.14-.24,0,.13-.05.06,0-.16,0-.23a3.34,3.34,0,0,0-.44-.17c0,.05.06.1,0,.14a.22.22,0,0,0-.09-.12c-.11.08,0,.22,0,.33s.19.19.13.33a4.14,4.14,0,0,1-.73-.83,3.71,3.71,0,0,0-1.2,0,4,4,0,0,0-1.42.55l-1.81,1.16-3.25,2.07,7.53,11.82,2.19-1.4-3-4.78,6.82,2.37Zm-6.67-8.06h0a.11.11,0,0,1,.13,0l0,.05s0-.07-.08-.09,0,0-.08,0h0Zm0,.12a.14.14,0,0,0,0,.07,0,0,0,0,0,0,0c.06,0,.07.07.11,0a.33.33,0,0,0,0-.13s0,.09,0,.13h0v0a.15.15,0,0,1-.11-.06h0v0l0,0Zm-.56-.83h0Zm0,.17v0h0v0Zm0,0s0,0,0,0S124.8,137.15,124.8,137.16Zm0,3.44c-.06.08-.15.05-.21.11l-.06-.05a2.19,2.19,0,0,1-.63.56l0,0-2.5,1.59-.53-.82,0,0a.33.33,0,0,1-.1.06c0-.1-.19-.1-.24-.19a.37.37,0,0,1,0-.18v-.16a.16.16,0,0,0,0-.07l-.17-.26-.72-1.14.37-.24,2.15-1.37a1.68,1.68,0,0,1,1.34-.3,1.78,1.78,0,0,1,1,.79,1.91,1.91,0,0,1,.33,1,.7.7,0,0,1,.12.3A1.5,1.5,0,0,1,124.79,140.6Z"/><path d="M140,135.19l-5,4.86-2.42-2.49,2.4-2.34,2.6-2.52L137,132s0,0,0,0a.63.63,0,0,1-.49.43c-.15.28,0,.66-.17.93-.14,0-.19.09-.32.08s-.05.12-.11.14.16-.21,0-.27l-.08.2s0-.11,0-.17-.2,0-.23.09.05-.12.08-.19-.08.08-.16,0a.46.46,0,0,1-.09.52c-.1,0-.2.2-.32.14s0-.17-.11-.16a.42.42,0,0,0-.24.23c-.06,0-.08,0-.1-.06s0-.12,0-.16a.53.53,0,0,1-.23.34.28.28,0,0,1-.11-.25.34.34,0,0,1,.15-.2c.09-.05.13.07.19.08a.47.47,0,0,1,0-.43.49.49,0,0,1,.26-.18c.12,0,.16.07.23.15a.31.31,0,0,1,.3-.1l.07.06c.1-.23.11-.49.3-.66s.17-.2.31-.16.16.07.21.14.1-.17,0-.24,0,.13-.08.1a.55.55,0,0,1,0-.38c-.06,0-.08.05-.14,0,.12-.19.08-.46.27-.59L136,131l-2.2,2.14h0a.64.64,0,0,1,0,.64,2.3,2.3,0,0,1-.38.32c-.11,0-.17,0-.27,0s0-.16-.08-.2,0,0,0-.06l-.46.45L131,135.88l-2.41-2.48.51-.49,2.12-2.07c-.05-.05-.1-.11-.07-.19s.08-.11.15-.13a.12.12,0,0,1,.12.13l2.17-2.11-1.65-1.7-1.74,1.69-4.81,4.67-.35.35,4,4.12,5.76,5.93,6.91-6.71Zm-4.11-3.3h0a.11.11,0,0,1,.08.13v.06a.27.27,0,0,0,0-.12c-.09,0,0,0-.07-.06h0Zm-.14.18v0s0,0,0,0l0,.08v0c.06,0,0,.11.08.11a.31.31,0,0,0,.12-.1s-.08.06-.11.1h0l0,0a.19.19,0,0,1,0-.13h0Zm-7.13.39a.44.44,0,0,1,.08-.2,1.71,1.71,0,0,1,.11-.14c.15-.06.35-.2.49,0l0,.17a.83.83,0,0,1-.23.49.41.41,0,0,1-.39,0h0c0-.12-.11-.21-.1-.33Zm-.45,2a.09.09,0,0,1,0,.09s-.05-.1-.09-.1A0,0,0,0,1,128.19,134.44Zm-.11.06s0,.08.07.07,0,0,0,0S128.05,134.57,128.08,134.5Zm.22,1v0c-.08,0,0-.09-.06-.07s0,0-.05.08.07.13.1.07l-.05,0c-.06,0-.07-.11-.06-.15s.1-.12.14,0S128.3,135.51,128.3,135.53Z"/><path d="M147.12,129.56l.06-.08-1.06-.73-.07,0,0,0-.07,0a.54.54,0,0,1,0,.35c-.07,0-.17-.09-.2-.16a.26.26,0,0,1,0-.23s.08,0,.12,0l-6.25-4.33L137.78,123l2.06-3-.71-.49-.17-.12-1.24-.86L133,125.41l-.76,1.1,2.13,1.48,1.11-1.61.93-1.35,3.7,2.57,3.51,2.43,2.18,1.51Zm-5.33-1.84c-.08,0-.15,0-.16-.13s0-.13.06-.17a.12.12,0,0,1,.16,0A.32.32,0,0,1,141.79,127.72Zm3.29,1.68c-.07.08-.16,0-.23.1s-.08-.13-.16-.13c-.09-.17-.27-.36-.18-.59a.36.36,0,0,1,.45-.33.61.61,0,0,1,.29.52A1.61,1.61,0,0,1,145.08,129.4Z"/><path d="M152.4,120l.64-1.47a4.1,4.1,0,0,0,.34-1.57,4.26,4.26,0,0,0-.28-1.51,0,0,0,0,0,0,0,3.85,3.85,0,0,0-1.94-2.11l0,.09c-.07,0-.15,0-.16-.12a.15.15,0,0,0,0-.07l0,0-1.56-.68-1.64-.72-.24-.1s0,0,0,0v0l-.14-.06s0,0,0,0,.1.15.12.08l-.05.06c-.07,0-.09-.12-.08-.17l-4.69-2-.82-.36-.3.7-.71,1.61,1.79.78a2.85,2.85,0,0,1-.31-.38,3.51,3.51,0,0,1-.58-1.26c-.05-.43.39-.59.53-.91,0-.11.13-.05.17-.11a.46.46,0,0,0-.06.23c0,.06.09,0,.1,0,.22.08.31.3.56.31a.18.18,0,0,0-.06.09,3.78,3.78,0,0,1,.26.43c-.1.15.08.24,0,.39h-.08a1.5,1.5,0,0,0,0,.3c.14.06.19.19.25.34a1.38,1.38,0,0,0,0,.26s0,0-.06-.07,0,.17-.12.23-.09-.25-.26-.2c0,.12.19.25.15.34a.24.24,0,0,0-.11-.13c-.12.09,0,.24.06.36l1.86.81a.35.35,0,0,1,.15.07l2.11.92s0-.07-.05-.1.15-.26.17-.39.19-.09.26-.19.25-.06.36,0,.21.3.28.44a1.23,1.23,0,0,1,0,.63l.56.25,1.09.47.06,0h0s0-.06,0-.09.17-.31.35-.24l.1.1a.72.72,0,0,1,0,.48s0,0-.06.08l0,0a.21.21,0,0,0,0,.06,1.72,1.72,0,0,1,.33.51,1.85,1.85,0,0,1,.14.65,1.64,1.64,0,0,1-.15.68l-.48,1.11a1.68,1.68,0,0,1-.4.57,1.8,1.8,0,0,1-.58.35,1.89,1.89,0,0,1-.67.11,2.08,2.08,0,0,1-.68-.15L144,118l-4-1.74a.31.31,0,0,1,0,.13c-.09,0-.17,0-.2-.11a.49.49,0,0,1,0-.12l-.84-.37-.63,1.44-.39.88.76.34.36.15a.25.25,0,0,1,.2-.06l.12.11a.61.61,0,0,1,0,.12l.86.37,5.94,2.6.82.36a4,4,0,0,0,1.58.34,5.05,5.05,0,0,0,.68-.06,4.37,4.37,0,0,0,.86-.23,4.62,4.62,0,0,0,1.32-.84A4.15,4.15,0,0,0,152.4,120Zm-7.91-7.68s0,0,0,.06-.11.08-.16.11.07.12.06.17-.21-.18-.23,0l.06.12c-.12,0-.08-.24-.23-.21l-.05.16s0-.18-.08-.15,0,.1-.07.14,0-.34-.18-.27,0,.15-.05.07c.08-.17-.14-.21,0-.39s-.08-.28.12-.38c0-.12.15-.13.2-.18.27.17.25-.18.52-.13.09,0,.15.07.21.11.17.22.07.44.15.69C144.64,112.28,144.55,112.17,144.49,112.33Z"/><path d="M156.67,107.28l.44-2.21q-2.13-.93-4.24-1.92t-4.26-1.92l0-.13,8.91,1.86.41-2-13.7-2.86-.6,2.89,4.72,2.13,4.72,2.14,0,.13-10.35.12-.6,2.89,2.56.53,2.33.49,1.92.4,6.89,1.44.41-2-1.7-.36c0,.09.06.17,0,.27h-.07a1.24,1.24,0,0,0,0,.27.42.42,0,0,1,.17.31c0,.07,0,.18,0,.23s0-.06,0-.07,0,.14-.14.18,0-.23-.19-.2c0,.11.13.24.08.31s0-.09-.07-.13,0,.22,0,.33.17.21.1.34a3.61,3.61,0,0,1-.67-.93,2.85,2.85,0,0,1-.35-1.14v0l-1.78-.37-4.15-.86,0-.13Zm-2,2.88c.13-.11,0-.25.15-.31,0-.11.15-.1.19-.14.21.18.24-.12.46,0s.13.08.18.12c.11.21,0,.38,0,.61-.1,0-.16-.1-.23,0s0,0,0,.06-.1,0-.15.07.06.12,0,.16-.16-.18-.2,0l0,.11c-.11,0,0-.21-.17-.2l-.06.13s0-.16-.06-.15,0,.09-.08.12.05-.29-.11-.26,0,.14-.06.06C154.77,110.36,154.58,110.3,154.68,110.16Z"/><path d="M170.87,88.2l-.06-1a1.2,1.2,0,0,1,0,.2c-.07,0-.19-.07-.24-.14a.31.31,0,0,1,0-.25c0-.09.14,0,.2-.05a.45.45,0,0,1-.24-.35.43.43,0,0,1,.09-.3.15.15,0,0,1,.16,0c0-.44-.08-.87-.12-1.3l0,0h0v0l0,0s0,0,0,0a.19.19,0,0,0,0,.08v0h0c0-.08,0-.16,0-.25h0s0,0,0,0v0h0L170.43,83a.09.09,0,0,0-.09,0l-.05.16s0-.18-.08-.16,0,.1-.07.14,0-.33-.17-.28,0,.16-.06.08c.09-.17-.13-.22,0-.39s-.07-.28.13-.38c0-.12.15-.12.2-.17l.1,0c-.1-.78-.22-1.55-.34-2.32a78.4,78.4,0,0,0-2.61-11.06,3.58,3.58,0,0,0-.11-.35h0c-.06,0-.09,0-.14,0s0-.08,0-.11,0-.21.07-.29c-.35-1.08-.72-2.15-1.12-3.21a79.33,79.33,0,0,0-9.47-18c-.77-1.09-1.57-2.16-2.39-3.21-.47-.6-.95-1.19-1.43-1.78s-1.15-1.35-1.73-2a81.33,81.33,0,0,0-7.09-7q-1.6-1.41-3.28-2.73l-1.29-1-.27-.2a1,1,0,0,1-.23.32c-.21.07-.38.3-.63.34,0,.09-.08.12-.07.21s-.08.1-.15.05.16-.23.09-.39-.17-.36-.12-.53a.66.66,0,0,0,.22-.22,1.5,1.5,0,0,0,0-.42l-1.45-1a.51.51,0,0,1-.34.37c-.09.31.16.63,0,.92-.14,0-.16.13-.29.15a.24.24,0,0,1-.07.16c0-.07.11-.23,0-.27l0,.2s0-.11,0-.16-.18.05-.19.13,0-.13,0-.2-.06.09-.15.06a.42.42,0,0,1,0,.51c-.09.06-.15.24-.27.21s0-.17-.14-.13a.35.35,0,0,0-.18.26c0,.06-.09,0-.11,0s0-.11-.06-.14a.5.5,0,0,1-.13.34l1.46,1a77.41,77.41,0,0,1,9.81,8.44c.61.63,1.22,1.26,1.82,1.91A4.18,4.18,0,0,1,148,40c.13-.38.55-.33.8-.54,0-.09.12,0,.18,0s-.12.1-.14.17.08,0,.09,0c.15.15.14.37.33.48a.14.14,0,0,0-.08,0,3.42,3.42,0,0,1,0,.45c-.15.09,0,.23-.14.33l-.07,0c-.06.06-.08.18-.12.25a.47.47,0,0,1,.07.37c-.05.07-.1.16-.13.21a.05.05,0,0,0,0-.08c-.07,0-.08.05-.12.09l.2.24s0,0,0,0,.05-.26.25-.27c0-.11.17,0,.23-.07.16.26.28,0,.48.11s.1.12.14.17c0,.25-.13.39-.16.63-.11,0-.13-.15-.24-.05s0,0,0,.07-.12,0-.18,0a.09.09,0,0,0,0,0c.62.73,1.23,1.46,1.83,2.21h0c.1,0,.19,0,.28-.06s.23.06.28.18.06.33.05.47a.88.88,0,0,1-.05.15l.22.28a76,76,0,0,1,15,34.74,74.14,74.14,0,0,1,.84,8.5c0,1.1.08,2.21.08,3.33a76.68,76.68,0,0,1-.44,8.2s0,.07,0,.1l.09,0c0-.07.11,0,.17,0a.41.41,0,0,0-.15.14s.07,0,.08,0c.13.15.1.34.27.45a.2.2,0,0,0-.08,0,1.87,1.87,0,0,1,0,.41c-.13.07,0,.21-.14.28l-.06,0c-.06.06-.08.16-.13.22a.4.4,0,0,1,0,.34,1.29,1.29,0,0,0-.13.18.08.08,0,0,0,0-.08c-.09,0-.09.11-.19.11a.75.75,0,0,1,0-.15c-.16,1.16-.34,2.3-.55,3.44h0a.24.24,0,0,1,.23-.11l.07,0c.06-.2,0-.42.17-.57s.12-.19.24-.17.14,0,.19.09.07-.15,0-.21,0,.12,0,.1a.34.34,0,0,1,0-.31c-.06,0-.07,0-.11,0,.08-.18,0-.43.19-.55,0-.08.13-.1.17-.13a.31.31,0,0,1,.29.23c0,.11,0,.23-.05.31a.5.5,0,0,1-.35.41c-.1.25.1.54,0,.78-.12,0-.15.1-.25.11s0,.1-.08.13.11-.19,0-.23l0,.17s0-.09,0-.14-.16,0-.17.1,0-.11,0-.17-.06.08-.13,0a.36.36,0,0,1,0,.43c-.08.05-.14.19-.24.16s0-.15-.11-.12a0,0,0,0,0,0,0c-.07.35-.12.7-.19,1a76.49,76.49,0,0,1-3.36,11.69c-.84,2.21-1.76,4.38-2.79,6.49v0a.87.87,0,0,1-.2.38,2.12,2.12,0,0,0-.11.21h0c-.93,1.86-1.92,3.69-3,5.46A76.72,76.72,0,0,1,143.83,148c-.1.1-.2.2-.31.29a.26.26,0,0,0,.13.12l-.06,0a1.84,1.84,0,0,1,.07.3c-.09.07,0,.16-.07.24l0,0s0,.13-.06.18a.3.3,0,0,1,.07.25l-.06.15a0,0,0,0,0,0,0c-.06,0-.05.08-.11.1s0-.16-.11-.17.05.19,0,.24a.2.2,0,0,0,0-.11c-.09,0,0,.16,0,.24s.09.17,0,.25a2.83,2.83,0,0,1-.34-.75,1.21,1.21,0,0,1-.07-.33c-1.09,1-2.21,1.93-3.35,2.85-1.33,1.08-2.71,2.11-4.11,3.09l-.29.21a.73.73,0,0,1-.28.27l-.19.06c-.37.26-.75.5-1.13.75a77.38,77.38,0,0,1-9.06,5.13c-.3.14-.62.27-.92.42a75.72,75.72,0,0,1-27.71,6.88c-.86,0-1.74.06-2.61.08a.23.23,0,0,1,0,.2.54.54,0,0,1-.13.56c0,.28.36.46.35.75-.12,0-.09.16-.18.23s0,.1,0,.15,0-.23-.11-.21l0,.18s0-.1-.06-.14-.13.11-.11.18,0-.11,0-.17,0,.09-.1.1a.4.4,0,0,1,.21.41c-.06.09,0,.25-.16.27s-.09-.12-.16-.05a.31.31,0,0,0,0,.28c0,.07-.08,0-.11,0s-.06-.09-.1-.1a.45.45,0,0,1,0,.36c-.06,0-.16-.06-.2-.12a.24.24,0,0,1,0-.22c0-.08.12,0,.17,0a.41.41,0,0,1-.21-.32.45.45,0,0,1,.09-.26c.08-.08.15,0,.25,0a.25.25,0,0,1,.16-.23h.08a1.37,1.37,0,0,1-.12-.62c0-.1,0-.24.14-.27s.15,0,.22,0,0-.17-.1-.19.06.11,0,.12a.44.44,0,0,1-.17-.29c-.06,0,0,.07-.09.08,0-.21-.22-.4-.09-.61h0l-.85,0a0,0,0,0,0,0,0v0h-.15c-1.82,0-3.61-.09-5.4-.21l-.66-.05-.27,0a1.18,1.18,0,0,0,.07.2,1.11,1.11,0,0,1-.07.67c-.16.16-.22.44-.43.58,0,.08,0,.14,0,.21s0,.13-.12.11.06-.27-.07-.39-.3-.26-.33-.43a.64.64,0,0,0,.11-.3,1.66,1.66,0,0,0-.15-.39c0-.14.1-.22.16-.33-.65-.06-1.28-.13-1.92-.21,0,0,0,0,0,0a.59.59,0,0,1-.13.62c0,.32.4.51.39.83-.13,0-.09.18-.2.26a.25.25,0,0,1,0,.17c-.06-.05,0-.26-.12-.24l0,.21s0-.11-.06-.16-.14.13-.12.2,0-.13,0-.19,0,.1-.11.11a.43.43,0,0,1,.22.46c-.06.09,0,.27-.16.3s-.11-.14-.18-.06a.38.38,0,0,0-.06.31c0,.08-.09,0-.12,0s-.06-.1-.11-.11a.34.34,0,0,1,0,.22q1.31.17,2.61.27c.86.08,1.72.15,2.58.2,1.38.08,2.76.12,4.15.13a.17.17,0,0,1,0-.1.34.34,0,0,1,.38-.35.51.51,0,0,1,.33.45h0c1.19,0,2.37,0,3.55-.09a79,79,0,0,0,47.16-18.46l.6-.51a.1.1,0,0,1,0-.08.17.17,0,0,1,0-.15s.08,0,.12,0a.27.27,0,0,1-.08-.26.29.29,0,0,1,.11-.16c.07,0,.11,0,.17,0a.2.2,0,0,1,.16-.12l0,0a1.13,1.13,0,0,1,0-.45c0-.06.06-.16.15-.16s.11,0,.15,0,0-.12,0-.15,0,.08,0,.08a.35.35,0,0,1-.06-.24s0,.05-.07,0-.08-.31.05-.43.08-.1.11-.13a.23.23,0,0,1,.25.13c0,.08.08.16,0,.23a.39.39,0,0,1-.19.36c0,.17.09.33.09.5.59-.52,1.18-1.06,1.76-1.6,0,0,0,0,0-.07a.13.13,0,0,0,0,.06l.06-.05s0,0,0-.06,0,0,0,0v0s.09-.06.11,0l.1-.1a79.88,79.88,0,0,0,16.59-22.37,77.24,77.24,0,0,0,3.11-7.09,78.12,78.12,0,0,0,3.59-12.37c.11-.53.21-1.07.31-1.61l-.06.07c-.18.06-.35.24-.56.26,0,.07-.08.09-.07.16s-.08.09-.13,0,.15-.18.1-.32-.12-.32-.07-.46a.47.47,0,0,0,.2-.17,1.56,1.56,0,0,0,0-.36c0-.13.21-.12.28-.2s.18,0,.26,0l.16.09c.25-1.45.45-2.92.62-4.39a79.59,79.59,0,0,0,.5-8.92C171,91,170.94,89.59,170.87,88.2Zm-29.8-55.77a.39.39,0,0,1-.34.16c0-.11-.17-.15-.2-.26a.38.38,0,0,1,0-.21,1,1,0,0,1,.05-.16c.12-.1.26-.3.44-.19l.08.13A.8.8,0,0,1,141.07,32.43Zm11.24,10.66s0,0,0,0h0c-.06-.06.07-.07,0-.09s-.06,0-.08,0,0,.16.07.12l-.07,0c-.05,0,0-.13,0-.17s.14-.07.16,0S152.32,43.07,152.31,43.09Zm.21-1.08c0,.05,0,.09,0,.1s0,0,.05,0S152.47,42.07,152.52,42Zm.12.08h0s0-.11,0-.13.06,0,.06,0A.09.09,0,0,1,152.64,42.09ZM154.1,46a.35.35,0,0,1-.34.1h0c0-.11-.13-.17-.14-.28a.32.32,0,0,1,0-.19.64.64,0,0,1,.08-.14c.12-.08.28-.23.43-.1l0,.14A.76.76,0,0,1,154.1,46ZM165,67.38a.22.22,0,0,1-.21,0c0-.06-.05-.11,0-.17h0a.31.31,0,0,1,0-.1l.07-.07c.08,0,.2-.09.26,0v.08A.42.42,0,0,1,165,67.38Zm1.2-.91s-.06-.07,0-.11,0-.06.09-.06a.07.07,0,0,1,.06.07A.18.18,0,0,1,166.19,66.47Zm1,38.53h0l0,0a.13.13,0,0,1-.06-.1s0,0,0,0v-.06s0,0,0,0a.14.14,0,0,1,0,.07s0,0,0,0,0,.09.08.07a.18.18,0,0,0,.08-.09S167.17,105,167.15,105Zm.07-.23c-.07,0,0,0-.06,0h0s.08.06.08.1v0A.17.17,0,0,0,167.22,104.77ZM92.35,169.32h0a.12.12,0,0,1,.13.05l0,0s0-.07-.07-.08,0,0-.08,0v0Zm0,.12a.24.24,0,0,0,0,.08v0c.06,0,.07.07.11,0a.37.37,0,0,0,0-.14s0,.09,0,.13h0v0a.15.15,0,0,1-.11-.06h0v0l0,0S92.33,169.46,92.33,169.44ZM88.45,171c-.08,0-.15,0-.17-.11s0-.12,0-.17a.11.11,0,0,1,.15,0A.35.35,0,0,1,88.45,171Zm3.3-2.17v0h0v0Zm3.89,1.11c-.14.14-.2.39-.39.51,0,.08,0,.13,0,.2s0,.11-.1.09,0-.24-.06-.35-.28-.24-.3-.39a.64.64,0,0,0,.11-.27,1.6,1.6,0,0,0-.14-.35c0-.15.14-.23.17-.34s.17-.07.23-.15.22,0,.31,0,.17.27.23.4A1,1,0,0,1,95.64,169.92ZM139.76,153a.24.24,0,0,1-.22.11c0-.07-.11-.1-.13-.17h0a.22.22,0,0,1,0-.14l0-.11c.08-.06.17-.19.29-.12l0,.09A.5.5,0,0,1,139.76,153Zm.84-1.54s-.1-.05-.09-.11a.17.17,0,0,1,.06-.11.1.1,0,0,1,.1.05A.26.26,0,0,1,140.6,151.47Zm2,1.47c-.05,0-.11,0-.16,0s0-.1-.1-.1-.13-.28-.05-.42a.24.24,0,0,1,.33-.16.37.37,0,0,1,.14.37A1.48,1.48,0,0,1,142.59,152.94Zm.7-2.31h0Zm0-.12h0v0Zm.23.74s0,.06.07.05a.41.41,0,0,0,.05-.09s0,.06-.05.09h0l0,0a.13.13,0,0,1-.05-.07h0v0s0,0,0,0h0a.12.12,0,0,1,0-.09h0s.07,0,.08.06v0s0-.05,0-.07,0,0-.05,0a.08.08,0,0,0,0,.08v0S143.55,151.25,143.56,151.25Zm.69-1.26c-.07,0-.1-.1-.17,0s0,0,0,.05-.08,0-.12,0,0,.09,0,.11-.09-.15-.14,0v.08c-.07,0,0-.15-.09-.16l-.06.08s0-.1,0-.11,0,.06-.07.07.07-.19-.05-.19,0,.09-.05,0,0-.16.05-.24,0-.18.15-.2.12,0,.16-.07c.12.16.18,0,.33,0s.07.07.1.11S144.25,149.82,144.25,150Zm1.82-.5h0s-.06,0,0-.06,0,0,0,.06h0Zm.05,0s0-.07,0-.08,0,0,0,0A.13.13,0,0,1,146.12,149.47Zm13.95-20c-.17.14-.25.4-.46.52,0,.08,0,.13,0,.2s0,.12-.12.09.08-.25,0-.37-.27-.27-.28-.44a.66.66,0,0,0,.12-.27,1.41,1.41,0,0,0-.11-.38c0-.16.17-.23.2-.34s.19-.06.26-.15.23,0,.32.08.16.29.21.43A1.06,1.06,0,0,1,160.07,129.43Zm2.05-4.83a.19.19,0,0,1-.06-.2c.05,0,.09-.1.15-.1a.11.11,0,0,1,.1.13A.32.32,0,0,1,162.12,124.6Zm7.8-40.68,0,0h0Zm0,.2v0h0v0Zm0,0s0,0,0,0S169.88,84.08,169.88,84.09Zm-1.57,19.37c-.09,0-.1-.15-.22-.06s0,0,0,.06-.1,0-.16,0,0,.12,0,.15-.08-.22-.17-.09v.11c-.1,0,0-.2-.08-.24l-.1.09s.08-.12,0-.15,0,.07-.11.07.15-.23,0-.26,0,.12-.07,0c.13-.09,0-.22.13-.3s.06-.23.25-.22c0-.1.16,0,.21,0,.12.24.26,0,.42.13s.09.11.11.17C168.52,103.13,168.35,103.24,168.31,103.46Zm.32-21.16a3.42,3.42,0,0,1-.54-1.26c0-.43.4-.58.55-.9,0-.1.13,0,.18-.1a.41.41,0,0,0-.07.23c0,.06.09,0,.09,0,.22.08.31.3.55.31a.47.47,0,0,0-.06.09,2.7,2.7,0,0,1,.24.44c-.1.14.08.24,0,.38h-.08a1.53,1.53,0,0,0,0,.3c.14.07.18.2.24.34a1.48,1.48,0,0,0,0,.27s0-.06-.06-.08,0,.17-.13.22-.08-.25-.25-.2c0,.12.18.26.14.35a.26.26,0,0,0-.11-.14c-.12.09,0,.25.06.37s.22.22.15.37A4.3,4.3,0,0,1,168.63,82.3ZM170,88c-.06.1-.17.06-.23.14s-.1-.13-.19-.11c-.12-.17-.34-.35-.28-.61a.38.38,0,0,1,.43-.41.62.62,0,0,1,.38.51A2,2,0,0,1,170,88Z"/><path d="M104.69,22.22l.43.08.18,0a1,1,0,0,0,.56-.2.88.88,0,0,0,.32-.53h0a.91.91,0,0,0-.71-1.07l-.45-.08a.9.9,0,0,0-1.06.72v.07A.9.9,0,0,0,104.69,22.22Z"/><path d="M78.88,33.39l.16-.07s-.05-.09-.1,0A.23.23,0,0,0,78.88,33.39Z"/><path d="M78.74,33.38a.17.17,0,0,1,0,.07l0,0S78.76,33.39,78.74,33.38Z"/><path d="M46.88,36.49a.88.88,0,0,0,.56-.19l.35-.28A.9.9,0,0,0,48,34.77v0a.9.9,0,0,0-1.27-.15l-.36.28a.91.91,0,0,0-.15,1.27h0A.87.87,0,0,0,46.88,36.49Z"/><path d="M53.17,32.06a1,1,0,0,0,.48-.14l.37-.24a.89.89,0,0,0,.42-.77.83.83,0,0,0-.12-.46h0a.91.91,0,0,0-1.25-.29l-.39.24a.9.9,0,0,0-.28,1.25l0,0A.88.88,0,0,0,53.17,32.06Z"/><path d="M58.6,40.5,63,38.26l.12.24a.24.24,0,0,1,.13-.08l.1,0c0-.26-.16-.51-.07-.76s.05-.27.2-.3.18,0,.26,0,0-.2-.09-.24,0,.14,0,.14a.52.52,0,0,1-.16-.36c-.07,0-.05.08-.12.08,0-.26-.21-.5,0-.74,0-.1.1-.17.14-.24a.4.4,0,0,1,.45.14c0,.13.17.25.08.39a.64.64,0,0,1-.21.65c0,.34.37.58.32.93-.15,0-.13.18-.25.25a.28.28,0,0,1,0,.18c-.06,0,0-.27-.1-.27l0,.23s0-.12,0-.18-.17.12-.15.21,0-.15,0-.22,0,.11-.13.11a.46.46,0,0,1,.19.52c0,.05-.06.14-.1.2l.17.34-2.7,1.39-2.68,1.37,1,1.91,8-4.08.29-.15.09,0,1.38-.71,3.2-1.64-1-1.91-3.93,2-.39.2a.9.9,0,0,1-.08.21c-.19.15-.29.44-.53.56,0,.1,0,.15,0,.23s0,.14-.13.1.09-.28,0-.42l-.16-.2-.13.07-.64-1.25,1.88-1L69.36,35l.16-.08L69,34l-.08,0a.28.28,0,0,0-.11-.13.55.55,0,0,1,0,.45c-.08,0-.2-.09-.24-.18a.36.36,0,0,1,0-.27c0-.09.15,0,.22,0a.53.53,0,0,1-.23-.42.85.85,0,0,1,0-.17l-1.84-3.61-4.26,2.18-.75.39c.17.12.24.31.46.35a.71.71,0,0,0-.07.09,2.86,2.86,0,0,1,.2.48c-.13.14,0,.26,0,.4h-.09a1.76,1.76,0,0,0,0,.31.46.46,0,0,1,.17.28l3.21-1.64,1,1.86-3.6,1.84-3.11,1.59-1-1.87,2.55-1.3a3.45,3.45,0,0,1-.2-.32,3.93,3.93,0,0,1-.39-1.38.56.56,0,0,1,.07-.24l-5,2.58Zm8.54-6.45a.42.42,0,0,1,.51-.4.65.65,0,0,1,.36.59,2,2,0,0,1-.17.51c-.08.1-.19,0-.27.13s-.09-.15-.19-.14C67.26,34.54,67,34.32,67.14,34.05ZM63.9,32.93c-.08,0-.17,0-.19-.15a.29.29,0,0,1,.07-.2.12.12,0,0,1,.18.05A.36.36,0,0,1,63.9,32.93Zm2.72.5a.11.11,0,0,1,0,.1h0c0-.05,0-.12-.1-.13S66.61,33.4,66.62,33.43Zm-.13,0s0,.1.07.09,0,0,.06,0S66.44,33.56,66.49,33.48Zm0,1.2c0-.07.12-.12.17,0s0,0,0,.06,0,0,0,0l0,0c-.08,0,0-.11-.06-.1s0,.06-.07.09.08.17.11.1l-.06,0C66.44,34.84,66.44,34.73,66.46,34.68ZM62.94,37v0h0s.12,0,.14.07l0,.07s0-.09-.09-.11,0,0-.09,0,0,0,0,0a.23.23,0,0,0,0,.21l0,0c.07,0,.07.09.13.06a.27.27,0,0,0,0-.16c0,.05,0,.1,0,.15h0l0,0a.19.19,0,0,1-.11-.09h0a0,0,0,0,1,0,0s0,0,0,0A.15.15,0,0,1,62.94,37Zm-4.77,1.18a.35.35,0,0,1-.06.28c-.09,0-.17,0-.18-.14a.34.34,0,0,1,.06-.2A.13.13,0,0,1,58.17,38.16Z"/><path d="M72,39.24l-.1-.19-.38.19-4.34,2.22-6.6,3.37.9,1.76,5.67-2.9L70.55,42l.85,3.11,2.24-1.15-.87-3.1Zm-1,.55c.06-.31.39-.32.56-.51s.1,0,.15,0a.31.31,0,0,0-.1.15s.07,0,.07,0,.16.27.32.33l-.06.05a1.47,1.47,0,0,1,.08.35c-.1.09,0,.19-.07.28l0,0a1.72,1.72,0,0,0-.07.21c.09.07.09.17.1.29a.77.77,0,0,0-.07.17.09.09,0,0,0,0-.06c-.08,0-.06.11-.14.13s0-.19-.13-.19.07.21,0,.26a.16.16,0,0,0,0-.11c-.1,0,0,.18,0,.27s.1.2,0,.29a3,3,0,0,1-.42-.86A2.43,2.43,0,0,1,70.93,39.79Zm.71,2.4h0Zm-.08.12h0v0h0Zm0,0s0,0,0,0S71.56,42.28,71.56,42.29Zm1.12.42a.44.44,0,0,1-.21.42c0,.23.18.44.11.67-.1,0-.1.11-.19.15a.28.28,0,0,1,0,.12s.05-.19,0-.2V44s0-.09,0-.13-.13.06-.13.13,0-.1,0-.15,0,.07-.1.06a.32.32,0,0,1,.08.37c-.07,0-.09.19-.19.18s0-.12-.11-.08a.24.24,0,0,0-.1.22s-.07,0-.09,0a.21.21,0,0,0-.06-.1.39.39,0,0,1-.07.29c-.06,0-.13-.08-.14-.14a.23.23,0,0,1,0-.18s.1,0,.15,0a.32.32,0,0,1-.1-.3.36.36,0,0,1,.12-.19c.08,0,.13,0,.2,0A.24.24,0,0,1,72,43.9l.07,0a1.14,1.14,0,0,1,0-.52c.05-.07.07-.18.17-.19s.13,0,.18,0,0-.14,0-.17,0,.1,0,.09a.44.44,0,0,1-.07-.27s0,.05-.09,0c0-.17-.09-.36.06-.5,0-.07.09-.11.13-.15a.27.27,0,0,1,.29.14C72.69,42.53,72.76,42.62,72.68,42.71Zm-.79.34s0,.07.09.05,0-.07,0-.1,0,.06,0,.1h0l0,0a.16.16,0,0,1-.07-.07h0v0a0,0,0,0,1,0,0s0,0,0,0a.11.11,0,0,1,0-.1h0a.11.11,0,0,1,.09.07v0a.11.11,0,0,0,0-.09c-.06,0,0,0-.06,0a.1.1,0,0,0,0,.1v.08Zm.78-1.49c-.08,0-.11-.11-.19,0s0,0,0,.06-.09,0-.14,0,0,.1,0,.13-.11-.17-.16-.05l0,.1c-.09,0,0-.18-.12-.19l-.07.1s0-.13,0-.13,0,.07-.08.08.08-.23-.06-.22,0,.11-.06,0,0-.17.06-.27,0-.22.17-.24c0-.09.13,0,.17-.08.15.18.21-.07.39,0s.09.07.12.11S72.67,41.36,72.67,41.56Z"/><path d="M125.55,53.2h0l0,0,2.4,2.25.67.63,3.93,3.7,1.52-1.62-4-3.71-6.64-6.24L122,49.87l3.43,3.22,0,0h0c0-.06.08,0,.11,0a.22.22,0,0,0,0,.08Zm2.41,1a0,0,0,0,1,0,0h0s0-.06,0-.07A.05.05,0,0,1,128,54.18Zm-.07,0s0,0,0,0h0s0,0,0,0h0S127.87,54.22,127.89,54.2Zm-.09.61s.07-.06.09,0,0,0,0,0h0s0-.05,0-.05,0,0,0,0,0,.09,0,.05l0,0S127.79,54.83,127.8,54.81Z"/><path d="M137.59,50.19a.35.35,0,0,1,0,.2l.18-.19c-.06,0-.12.07-.14.12s0-.11,0-.17S137.67,50.22,137.59,50.19Z"/><path d="M144.89,44.5a.9.9,0,0,0,.6-.23h0a.9.9,0,0,0,.06-1.28l-.31-.34a.9.9,0,0,0-1.28,0s0,0,0,0a.89.89,0,0,0,0,1.25l.31.33A.87.87,0,0,0,144.89,44.5Zm-.78-.7s0-.12.11-.15a.11.11,0,0,1,.13.09.3.3,0,0,1-.13.23C144.16,43.93,144.1,43.88,144.11,43.8Z"/><path d="M148.46,41.49h0l.11.13A.11.11,0,0,0,148.46,41.49Z"/><path d="M156.65,62.59s0,0,0,0-.08,0-.12,0l0,.05s0,.06,0,.08l.19.41a.9.9,0,0,0,.82.53.84.84,0,0,0,.35-.07h0a.89.89,0,0,0,.45-1.19l-.18-.42a.92.92,0,0,0-1.2-.45h0a.9.9,0,0,0-.41.43h.11c.06.19.19,0,.29.15s.05.09.06.13-.15.23-.21.38C156.73,62.63,156.74,62.54,156.65,62.59Z"/><path d="M145.15,61.92l-.06-.1a.23.23,0,0,0,0,.11S145.13,61.94,145.15,61.92Z"/><path d="M147.41,66.79l.46-.27-.33-.56a.06.06,0,0,1,0,0,.6.6,0,0,1-.17.62A.84.84,0,0,0,147.41,66.79Z"/><path d="M101.57,77h0v0Z"/><path d="M101.8,76.85h0v0Z"/><path d="M83.71,64.42s0,0,0,0l0,0S83.74,64.44,83.71,64.42Z"/><path d="M49.8,70.14l.06-.11-.08.09S49.8,70.13,49.8,70.14Z"/><path d="M32.61,60.28l-1.79,3,1.91,1.13.09,0L36,59.12l1.76-3L41.42,59l.43.33L43.3,60.4,42,62.67l-.55.94c.09,0,.18,0,.24.1s.11.3.13.43a.94.94,0,0,1-.19.58c-.17.11-.28.34-.5.42,0,.08,0,.12,0,.19s0,.11-.12.07.11-.22,0-.36a1.33,1.33,0,0,1-.19-.35l-1,1.73-1.59,2.69,2,1.15L43.19,65,47,67.26l1.21-2L44.39,63l3.1-5.23-2-1.16-1,1.69L39,54l-2-1.18L33.25,59.2Z"/><path d="M28.3,68.75l0,.08a.19.19,0,0,1,0,.09c0,.07,0,.16,0,.21a.39.39,0,0,1-.13.2L27.72,71l1.67.42,3.77,1-.33,1.27-5.44-1.38-.57,2.24,15.49,4,.41-1.62.16-.62-.07,0a.68.68,0,0,1-.14.44.43.43,0,0,1-.38.1c0-.12-.14-.19-.14-.31h0a.34.34,0,0,1,.05-.22.55.55,0,0,1,.09-.14l0,0L35,74.23,35.33,73l7.21,1.84.67.17.57-2.26-.7-.18L30,69.19Zm1.29,1.46a.64.64,0,0,1-.24.32c-.13,0-.25.16-.4.17s-.06.06-.06.11-.05.06-.09,0,.11-.12.09-.22-.08-.23,0-.32a.57.57,0,0,0,.15-.12,1.09,1.09,0,0,0,0-.25c0-.09.15-.08.21-.13s.12,0,.18,0,.14,0,.16.13S29.6,70.12,29.59,70.21Z"/><path d="M18.27,71.05l-.05,0a.55.55,0,0,0,0,.18Z"/><path d="M18.52,96.34a.88.88,0,0,0,.25.57.61.61,0,0,0,.16.12.47.47,0,0,1,.06-.09l.14-.14a1.2,1.2,0,0,1,.33-.06.24.24,0,0,1,.21.1V97l-.06.13a.9.9,0,0,0,.71-.91l0-.44a.92.92,0,0,0-.31-.65.85.85,0,0,0-.61-.22h0a.73.73,0,0,0-.2,0,.44.44,0,0,0,0,.1.88.88,0,0,1-.31.41,1.23,1.23,0,0,0-.29.13.69.69,0,0,0,0,.25Z"/><path d="M153.15,130.21h0a.84.84,0,0,0,.46.13.91.91,0,0,0,.78-.44l.23-.39a.9.9,0,0,0-.32-1.24h0a.89.89,0,0,0-1.21.32l-.23.39A.9.9,0,0,0,153.15,130.21Z"/><path d="M89.52,142.09a.43.43,0,0,1,0-.13.33.33,0,0,1,.47-.19.44.44,0,0,1,.16.34h.49l0,0c.06-.06.12,0,.17,0a.38.38,0,0,1-.08-.36.43.43,0,0,1,.17-.21c.1-.05.15,0,.23.07a.27.27,0,0,1,.22-.15l.07,0a2,2,0,0,1,.08-.56.13.13,0,0,1,0-.05c.06-.08.09-.21.22-.2s.15,0,.2.06,0-.16,0-.21,0,.12-.05.11a.46.46,0,0,1,0-.32c-.06,0-.06.05-.11,0,.06-.2-.07-.44.12-.59,0,0,0-.05,0-.07h-.39a45.83,45.83,0,0,1-5.65-.35,47,47,0,0,1-12.28-3.18c-.92-.38-1.83-.78-2.72-1.22a.22.22,0,0,1-.09.12c-.07.23-.26.46-.48.47a.86.86,0,0,0-.06.48.72.72,0,0,1-.09.48c-.14,0-.19.1-.33.1s0,.12-.11.14.16-.21,0-.28l-.09.21s0-.11,0-.17-.2,0-.23.1c-.06-.07,0-.13.07-.2s-.08.08-.16,0a.46.46,0,0,1,0,.48c.73.36,1.47.71,2.23,1,.06-.05.14-.1.12-.2s-.12-.41,0-.57A.83.83,0,0,0,72,137a1.54,1.54,0,0,0,.05-.17.88.88,0,0,0,.06-.26c.05-.17.28-.13.37-.22s.22,0,.33,0,.24.1.27.24,0,.38,0,.54a.86.86,0,0,0-.07.1,1,1,0,0,1-.39.44c-.23.05-.45.25-.72.25a.21.21,0,0,1-.07.11l1,.44a49.14,49.14,0,0,0,12.82,3.31C86.93,141.93,88.22,142,89.52,142.09Zm2-1.85h0s.08,0,.09.09v0a.14.14,0,0,0,0-.1c-.07,0,0,0-.07,0h0Zm-.06.11s0,0,0,.07,0,0,0,0,0,.09.09.08a.29.29,0,0,0,.07-.12.75.75,0,0,1-.07.12h0l0,0a.14.14,0,0,1-.07-.1h0v0s0,0,0,0S91.44,140.36,91.44,140.35Zm-4.08-.22a.12.12,0,0,1,.13.09.43.43,0,0,1-.11.21c-.07,0-.13-.08-.12-.15S87.3,140.16,87.36,140.13Z"/><path d="M91.21,142a.3.3,0,0,0-.1.09h.22S91.29,142,91.21,142Z"/><polygon points="90.91 142.13 90.9 142.12 90.9 142.13 90.91 142.13"/><path d="M40,144a.91.91,0,0,0,.12.31,1.67,1.67,0,0,0,.12.16l.32.32a.93.93,0,0,0,.63.26.91.91,0,0,0,.65-.27l0,0a.89.89,0,0,0,0-1.25l-.32-.32a.92.92,0,0,0-.63-.25.85.85,0,0,0-.64.26h0a1.07,1.07,0,0,0-.13.19s0,.05,0,.08-.06.36-.11.5Z"/><path d="M35.29,139.12a.9.9,0,0,0,1.27.11l0,0a.91.91,0,0,0,.1-1.25l-.28-.34a.91.91,0,0,0-1.26-.14h0a.91.91,0,0,0-.13,1.27Z"/><path d="M35.77,148.8l.09.08a.13.13,0,0,0-.09-.11Z"/><path d="M35.55,148.58l.06.06s0-.06,0-.09S35.56,148.56,35.55,148.58Z"/><path d="M47.7,149.81s0,0,0,0a.91.91,0,0,0-.16-1.25l-.36-.28a1,1,0,0,0-.38-.17c.14.09.23.23.42.23a.47.47,0,0,0-.06.09,2.44,2.44,0,0,1,.24.41c-.09.14.08.22,0,.36h-.08a1.41,1.41,0,0,0,0,.29.33.33,0,0,1,.16.17c0,.05,0,.09.07.15s0,.07,0,.12S47.67,149.85,47.7,149.81Z"/><path d="M46.43,150l.17.09s0,0-.05-.07A3.28,3.28,0,0,1,46,148.8a.43.43,0,0,1,.06-.3,2.88,2.88,0,0,1,.32-.39,1,1,0,0,0-.46.28s0,0,0,0a.91.91,0,0,0,.15,1.27Z"/><path d="M47.21,150.1l.12,0c0-.06-.07-.12-.17-.09A.37.37,0,0,0,47.21,150.1Z"/><path d="M58.84,157.65a.92.92,0,0,0,.37.36l.41.2a.9.9,0,0,0,1-.12,1,1,0,0,0,.24-.3h0a.92.92,0,0,0-.21-1,1.28,1.28,0,0,0-.22-.17l-.4-.19a.9.9,0,0,0-1,.15l0,0c0,.07.06.14,0,.21a.38.38,0,0,1,0,.1.27.27,0,0,1-.14.21c0,.17.13.33.08.51C58.89,157.59,58.87,157.62,58.84,157.65Zm1.06-.32v0c0-.09.12-.11.16-.17s.11,0,.16,0,.14,0,.18.08.06.19.07.28a1,1,0,0,1,0,.14.51.51,0,0,1-.1.21c-.11.06-.19.2-.33.24s0,.07,0,.11,0,.07-.08,0,.07-.13,0-.22-.12-.19-.11-.28a.3.3,0,0,0,.11-.14A1.64,1.64,0,0,0,59.9,157.33Z"/><path d="M58.74,157a.45.45,0,0,0,0,.11.15.15,0,0,1,.11,0s0-.1,0-.13,0,.07,0,.07Z"/><path d="M81.45,164.85l.46.06H82a.91.91,0,0,0,.9-.79s0,0,0,0a.93.93,0,0,0-.77-1l-.44-.07a.9.9,0,0,0-1,.77h0a.41.41,0,0,0,0,.11A.91.91,0,0,0,81.45,164.85Z"/><path d="M81.48,170.59a.43.43,0,0,1,.09-.3c.08-.09.17,0,.27,0A.3.3,0,0,1,82,170h.09c0-.23-.19-.45-.14-.68s0-.26.15-.31.17,0,.24,0,0-.19-.11-.21.07.12,0,.13a.49.49,0,0,1-.19-.32c-.06,0,0,.08-.1.08,0-.21-.2-.4-.12-.61a74.89,74.89,0,0,1-7.38-1.32,76,76,0,0,1-25.72-11.23c-.26-.17-.51-.36-.76-.53a1.77,1.77,0,0,1-.08.33c-.06.1-.16.07-.22.14s-.09-.12-.18-.1c-.12-.16-.33-.33-.27-.57a.29.29,0,0,1,.09-.28,73.59,73.59,0,0,1-6.12-4.85c-.68-.6-1.36-1.21-2-1.84-1.11-1-2.19-2.14-3.24-3.25-.4-.42-.79-.84-1.18-1.27l-.07-.09a1.1,1.1,0,0,1-.14.09c-.11,0-.16-.07-.26-.06s0-.16-.06-.21,0-.2,0-.3c-1.07-1.21-2.09-2.45-3.08-3.73a75.87,75.87,0,0,1-7.57-11.9c-1-2-1.95-4-2.79-6A76,76,0,0,1,15.3,95.86c0-.23,0-.46,0-.69a2,2,0,0,1-.26.25c-.08,0-.13,0-.2,0s0-.11-.08-.14-.07-.35.07-.48a.28.28,0,0,1,.43-.09s0,0,0,.07c0-.79-.07-1.59-.07-2.4,0-1,0-2,.08-3a76.21,76.21,0,0,1,2.07-14.9c.17-.73.36-1.45.55-2.17h0a.31.31,0,0,1-.09.18c0-.08.13-.27,0-.31l-.05.23s0-.12,0-.19-.21.06-.23.15c-.08-.06,0-.15,0-.23s-.07.1-.17.07a.51.51,0,0,1,0,.59c-.11.07-.18.27-.33.23s0-.19-.15-.15a.42.42,0,0,0-.22.31c-.05.06-.1,0-.13-.05a.24.24,0,0,0-.06-.17.57.57,0,0,1-.19.43c-.08,0-.16-.16-.17-.26a.31.31,0,0,1,.13-.25c.08-.07.14,0,.21.05a.58.58,0,0,1-.07-.48.55.55,0,0,1,.24-.26c.14-.06.2,0,.3.11a.33.33,0,0,1,.3-.17l.1.05c.05-.27,0-.57.18-.79s.15-.27.31-.25.2,0,.26.1.08-.2,0-.27,0,.16-.07.13a.56.56,0,0,1,0-.42c-.08,0-.09.06-.15,0,.1-.25-.06-.58.21-.76,0-.11.17-.15.23-.2a.43.43,0,0,1,.3.13q.72-2.33,1.58-4.57a76.36,76.36,0,0,1,14-23.26c1.09-1.25,2.21-2.47,3.38-3.64s2.61-2.5,4-3.68c.61-.53,1.22-1.05,1.84-1.56l.69-.54c.63-.5,1.26-1,1.9-1.49l0,0c1.15-.86,2.34-1.68,3.55-2.48v0a3.37,3.37,0,0,0-.1-.34c0-.13.15-.19.18-.29s.16-.06.23-.13.2,0,.28.06.13.14.15.25l.2-.13c2.06-1.32,4.19-2.54,6.37-3.66.88-.46,1.77-.89,2.67-1.31a1.42,1.42,0,0,0,.14-.35c.08-.16.29-.09.4-.16s.2.07.32,0l.06,0,1-.44a76.18,76.18,0,0,1,47.74-4.13c.34.08.68.15,1,.24a.16.16,0,0,1,.05-.09.07.07,0,0,1,.09.05s0,0,0,.06c.84.22,1.67.46,2.5.7a.37.37,0,0,1,.09-.16c.07,0,.11,0,.17,0a.19.19,0,0,1,.14-.12h.06a1,1,0,0,1,0-.43c0-.06,0-.16.14-.16s.11,0,.15,0,0-.12,0-.14,0,.08,0,.08a.38.38,0,0,1-.06-.23s0,0-.08,0-.08-.3,0-.42.07-.09.1-.13a.25.25,0,0,1,.25.11c0,.08.07.16,0,.23a.39.39,0,0,1-.16.36c0,.19.16.36.11.56-.09,0-.08.09-.16.12s0,.08,0,.1,0-.15,0-.16v.13s0-.07,0-.1-.1,0-.1.1,0-.08,0-.12,0,.06-.09,0a.28.28,0,0,1,.08.31l0,.06c.76.23,1.52.47,2.27.72a76.79,76.79,0,0,1,13.77,6.16c1.44.83,2.85,1.69,4.23,2.6a.45.45,0,0,1,.36,0,.54.54,0,0,1,.16.33l.53.37a.36.36,0,0,1,0-.09.31.31,0,0,1,.11-.22c.07-.06.13,0,.19,0a.45.45,0,0,1-.07-.41.5.5,0,0,1,.2-.23c.12-.05.17,0,.26.09a.32.32,0,0,1,.26-.15l.08,0c0-.23,0-.49.15-.68s.13-.23.27-.22.17,0,.23.09.06-.18,0-.24,0,.14-.06.12a.48.48,0,0,1,0-.37c-.07,0-.07.06-.13,0s0-.34.06-.5l-.77-.51h0q-2.65-1.76-5.44-3.3a79.35,79.35,0,0,0-14.36-6.19c-.84-.26-1.69-.52-2.55-.76l0,.13a.32.32,0,0,1,.09.23l-.06.15a0,0,0,0,0,0-.05c-.07,0,0,.09-.11.11s0-.16-.12-.16.07.18,0,.23a.18.18,0,0,0,0-.1c-.09,0,0,.15,0,.23s.09.16,0,.24a2.77,2.77,0,0,1-.37-.7,1.56,1.56,0,0,1-.11-.51c-1-.26-1.93-.5-2.9-.73a79.51,79.51,0,0,0-45.94,3.15,78,78,0,0,0-8.18,3.66.28.28,0,0,1,.11.08.6.6,0,0,1-.07.64,1.71,1.71,0,0,1-.42.28c-.11,0-.16-.07-.26-.06s0-.16-.07-.21,0-.26.05-.38l-1,.51c-1.24.68-2.46,1.39-3.65,2.13-.74.46-1.47.92-2.19,1.4a.88.88,0,0,0,0,.28c-.1,0-.15-.09-.22,0s0,0,0,.06-.09.05-.14.07.05.1,0,.14-.16-.17-.19,0l0,.1c-.1,0,0-.2-.17-.19l0,.12s0-.11,0-.13L47,26.7s0,0,0,.05,0,0,0,0c-1.18.81-2.33,1.64-3.46,2.5a.25.25,0,0,1,0,.11l-.07,0-1.28,1c-.45.36-.9.72-1.35,1.1l-.77.65-1,.85,0,0S39,33,39,33a.72.72,0,0,1,.09.2s.07.09.1.13v.09a.14.14,0,0,0,0,.06c-.12.14.05.26,0,.4h-.08a1.19,1.19,0,0,0,0,.32.56.56,0,0,1,.21.38c0,.08,0,.21-.06.27a.09.09,0,0,0,0-.08c-.11,0,0,.16-.16.22-.08-.09-.05-.27-.24-.24,0,.13.16.28.11.37s0,.15,0,.21,0,0,0,.06.19.23.11.38l-.18-.21a.42.42,0,0,1-.26.23c-.09.28.15.57,0,.84-.13,0-.15.11-.26.13s0,.11-.08.14.11-.21,0-.24l0,.18s0-.1,0-.15-.17.05-.18.12,0-.12,0-.18-.06.08-.13.06a.39.39,0,0,1,0,.46c-.08.06-.13.21-.25.19s0-.16-.12-.12a.33.33,0,0,0-.17.24s-.07,0-.1,0,0-.11,0-.13a.47.47,0,0,1-.14.34c-.07,0-.13-.13-.14-.2a.25.25,0,0,1,.1-.2c.06-.06.11,0,.17,0a.4.4,0,0,1-.06-.38.41.41,0,0,1,.18-.21c.11,0,.16,0,.24.09a.26.26,0,0,1,.23-.14l.08,0c0-.21,0-.44.14-.62s.11-.21.24-.19.15,0,.2.07.06-.16,0-.21,0,.12,0,.11a.45.45,0,0,1,0-.34c-.06,0-.07,0-.12,0,.07-.18,0-.39.11-.54a2.8,2.8,0,0,1-.2-.32,2.15,2.15,0,0,1-.29-.68c-1.28,1.18-2.52,2.39-3.72,3.65L34,37.8l-.8.86-.69.76A79.64,79.64,0,0,0,17.13,64.77c-.06.18-.13.35-.2.53.24-.16.56-.18.78-.37.06-.1.15,0,.23,0a.76.76,0,0,0-.19.21c0,.07.1,0,.11,0,.19.19.17.46.41.59a.39.39,0,0,0-.11.06,3.6,3.6,0,0,1,0,.56c-.17.1,0,.28-.18.4l-.08,0a2.1,2.1,0,0,0-.15.3.61.61,0,0,1,.08.46,2.05,2.05,0,0,0-.16.26.1.1,0,0,0,0-.1c-.12,0-.11.14-.24.15s0-.29-.15-.32c0,.13.05.34,0,.41a.33.33,0,0,0,0-.19c-.17,0-.1.28-.12.41s.12.33,0,.45a4.77,4.77,0,0,1-.42-1.42,2.91,2.91,0,0,1,0-.93,79.92,79.92,0,0,0-2.27,7.73,79.11,79.11,0,0,0-2.16,18c0,.15,0,.3,0,.45,0,.85,0,1.7,0,2.54a79.07,79.07,0,0,0,19,49c1,1.2,2.08,2.36,3.18,3.5.35.37.71.74,1.07,1.1-.05-.2-.16-.39,0-.59,0-.1.11-.18.15-.24a.39.39,0,0,1,.45.14c0,.13.17.24.08.38a.63.63,0,0,1-.21.66.28.28,0,0,0,0,.12c.44.44.89.87,1.34,1.3l.8.74c.19-.09.43-.06.62-.16s.11,0,.17,0a.4.4,0,0,0-.16.12c0,.06.07,0,.08,0,.11.16.05.36.21.48l-.09,0a.38.38,0,0,1,0,.15v.07c.89.79,1.8,1.56,2.72,2.31.38.3.75.61,1.14.91.74.58,1.5,1.15,2.27,1.7a78.94,78.94,0,0,0,30.3,13.45l1.78.35a.22.22,0,0,1,0-.16.12.12,0,0,1,.17,0,.33.33,0,0,1,0,.17c1,.19,2.07.35,3.11.5a.46.46,0,0,1,.23-.06.32.32,0,0,1,.18.12l.65.09a.22.22,0,0,1,0-.16c0-.09.13,0,.19,0A.43.43,0,0,1,81.48,170.59Zm.12-1.88h0a0,0,0,0,0,0,0,.13.13,0,0,1,.14.06l0,.05a.16.16,0,0,0-.09-.09c-.06.05,0,0-.09,0v0Zm0,.14a.31.31,0,0,0,0,.08v0c.06,0,.08.08.13,0a.27.27,0,0,0,0-.15.4.4,0,0,1,0,.15h0a0,0,0,0,0,0,0,.15.15,0,0,1-.12-.07h0v0s0,0,0,0S81.58,168.86,81.58,168.85ZM135.73,27h0c.06,0,.1.06.11.11v.06a.21.21,0,0,0,0-.12c-.08,0,0,0-.08,0h0A0,0,0,0,1,135.73,27Zm-.08.11a.22.22,0,0,0,0,.08v0c.06,0,0,.11.1.09s.08-.07.09-.12-.06.08-.09.12h0l0,0a.15.15,0,0,1-.08-.11h0v0a.06.06,0,0,1,0,0S135.65,27.14,135.65,27.13Zm-.3-.93h0v0h0Zm-4.33.44a.12.12,0,0,1,.14.1A.32.32,0,0,1,131,27c-.07-.05-.14-.1-.12-.18S131,26.67,131,26.64Zm-15.67-9.77s.08-.06.1,0,0,0,0,0,0,0,0,0v0c-.05,0,0-.06,0-.06s0,0-.05,0,0,.11.06.07l0,0S115.34,16.9,115.35,16.87Zm-.56,1.46c0-.1.13-.13.17-.2s.12,0,.18-.07.15,0,.2.08.07.21.09.3a.77.77,0,0,1-.14.4c-.12.07-.2.23-.34.28s0,.08,0,.13,0,.08-.08.05.07-.15,0-.24-.15-.21-.14-.31a.42.42,0,0,0,.11-.16A1,1,0,0,0,114.79,18.33Zm-1.65-.27v0s0,.05.07,0a.18.18,0,0,0,0-.09s0,.06,0,.09h0s0,0,0,0a.12.12,0,0,1-.06-.06h0v0s0,0,0,0a.08.08,0,0,1,0-.08h0a.09.09,0,0,1,.08.06v0s0-.05,0-.07,0,0,0,0a.09.09,0,0,0,0,.08Zm-.07-1.51c.1-.06,0-.17.14-.2s.1-.05.14-.07c.13.15.18-.06.32,0s.08.07.11.1,0,.26,0,.43c-.07,0-.1-.09-.16,0s0,0,0,.05-.07,0-.11,0,0,.08,0,.11-.1-.14-.13,0v.08c-.07,0,0-.15-.1-.16l0,.08s0-.1,0-.1,0,.06-.06.07.06-.19-.06-.19,0,.1,0,0S113,16.64,113.07,16.55Zm-.18.81,0,0h0Zm0,.11v0h0v0Zm-50.3,2.67a.14.14,0,0,1,0,.09h0c0-.06,0-.13,0-.16A.07.07,0,0,1,62.55,20.14Zm-.14,0s-.06.08,0,.12,0,0,0,0S62.33,20.13,62.41,20.1ZM61.7,21c.07,0,.17,0,.15.08a.1.1,0,0,1-.05,0s0,0,0,0h0c0-.08.1-.05,0-.11s-.07,0-.11,0,0,.18,0,.14h-.08C61.6,21.14,61.66,21.06,61.7,21Zm-4.06-.22h0a0,0,0,0,1,0,0,.13.13,0,0,1,.07.14l0,.07a.22.22,0,0,0,0-.14c-.09,0,0,0-.06-.06h0A0,0,0,0,1,57.64,20.81Zm-.15.17v-.05s0,0,0,0a.2.2,0,0,0,0,.08s0,0,0,0,0,.12.07.13a.43.43,0,0,0,.13-.09s-.09.05-.12.09h0a.2.2,0,0,1,0-.14h0S57.48,21,57.49,21ZM56,22.5c.09,0,.11.08.17.1a.51.51,0,0,1,.07-.43A.5.5,0,0,1,56.5,22c.13,0,.16.09.22.18a.32.32,0,0,1,.31-.07l.07.07c.12-.21.17-.48.38-.63s.19-.19.33-.12.16.08.2.15.12-.15.06-.23,0,.13-.1.09a.53.53,0,0,1,.09-.37c-.06,0-.09,0-.14,0,.15-.19.11-.51.39-.59,0-.1.19-.08.25-.11a.4.4,0,0,1,.28.37c0,.12,0,.28-.16.35a.61.61,0,0,1-.54.38c-.19.27,0,.67-.28.92-.13-.06-.2.07-.34.05s-.06.11-.12.13.19-.19.07-.27l-.11.19s0-.11.06-.17-.2,0-.24.07.07-.12.1-.18-.09.06-.17,0a.44.44,0,0,1-.14.51c-.11,0-.23.18-.34.11s0-.18-.1-.17a.35.35,0,0,0-.26.2c-.07.05-.08-.05-.1-.08a.22.22,0,0,0,0-.16.55.55,0,0,1-.28.32.28.28,0,0,1-.08-.27A.32.32,0,0,1,56,22.5ZM50,25.23a.11.11,0,0,1,0,.08s-.05-.09-.08-.09S50,25.21,50,25.23Zm0,.11h0s0,0,0,0,0,0,0,0h0a0,0,0,0,1,0,0s-.08,0-.06-.06S50,25.34,50,25.34Zm-.05.88c0-.06.09-.1.13,0s0,0,0,.05,0,0,0,0l0,0c-.07,0,0-.08,0-.07s0,0-.05.07.06.13.09.08l-.05,0A.12.12,0,0,1,49.94,26.22Zm-2.71,1.85h0s0,0,0,0,.09,0,.11.06l0,.05a.18.18,0,0,0-.06-.09c-.06,0,0,0-.08,0v0S47.22,28.08,47.23,28.07Zm0,.11a.15.15,0,0,0,0,.07s0,0,0,0,.06.08.1.05,0-.08,0-.12,0,.08,0,.12h0s0,0,0,0a.11.11,0,0,1-.09-.07h0v0s0,0,0,0S47.2,28.2,47.2,28.18ZM47,30c0-.07.11,0,.16,0a.41.41,0,0,1-.17-.31.37.37,0,0,1,.1-.24c.08-.07.15,0,.23,0a.27.27,0,0,1,.17-.19h.08a1.33,1.33,0,0,1-.07-.59c0-.09,0-.21.15-.24s.14,0,.21,0,0-.16-.08-.18,0,.11,0,.11a.42.42,0,0,1-.14-.28s0,.06-.09.06c0-.2-.18-.38,0-.57,0-.08.08-.14.11-.19a.31.31,0,0,1,.36.1c0,.1.13.18.07.3a.5.5,0,0,1-.16.51c0,.27.3.45.27.73-.12,0-.1.14-.19.19a.25.25,0,0,1,0,.15s0-.22-.09-.21l0,.17s0-.09,0-.13-.13.09-.12.16,0-.11,0-.17,0,.09-.1.09a.37.37,0,0,1,.16.4c-.06.08-.06.23-.17.24s-.08-.12-.14-.06a.27.27,0,0,0-.07.26c0,.06-.08,0-.11,0s0-.09-.08-.1a.45.45,0,0,1,0,.34c-.06,0-.15-.07-.18-.14A.23.23,0,0,1,47,30Zm-.25-2.6h0Zm0,.16v0h0v0Zm0,0s0,0,0,0S46.69,27.49,46.69,27.5Zm-.79,2.67a.31.31,0,0,1,.38-.3.48.48,0,0,1,.27.44,1.38,1.38,0,0,1-.13.39c-.06.07-.14,0-.2.09s-.07-.11-.14-.1C46,30.53,45.82,30.37,45.9,30.17Zm-3.58,1c.08-.1.16-.29.33-.23l.1.1a.7.7,0,0,1,0,.45l0,0a.38.38,0,0,1-.23.16c0-.05-.06-.07-.11-.1a.22.22,0,0,1-.1-.09.32.32,0,0,1,0-.17C42.31,31.32,42.31,31.27,42.32,31.22Zm-.55,2.28a.08.08,0,0,1,0,.08h0s0-.11,0-.12S41.77,33.47,41.77,33.5Zm-.12,0s0,.09,0,.1,0,0,.05,0S41.59,33.56,41.65,33.5Zm-.33,1s.13-.06.14,0,0,0,0,0v0h0c-.06-.05.07-.07,0-.09s-.06,0-.08.06,0,.15.06.1l-.06,0C41.26,34.58,41.29,34.5,41.32,34.46Zm-1.93.6c.15-.13,0-.3.18-.38,0-.13.17-.12.22-.17.26.22.29-.15.55-.06.1,0,.16.09.22.13.14.25,0,.47.06.74-.12,0-.19-.12-.28,0s0,0,0,.08-.12.06-.18.09.07.13.05.19-.2-.22-.24,0l0,.13c-.13,0,0-.25-.21-.24l-.07.16s0-.18-.08-.17,0,.11-.09.14.06-.35-.14-.3,0,.16-.07.07C39.5,35.3,39.28,35.23,39.39,35.06Zm-.09,1.43h0Zm0,.2v0h0v0Zm0-.09s0,0,0,.06S39.23,36.6,39.24,36.6Zm-1.33-1.21h0s.08.06.09.1v.05a.14.14,0,0,0,0-.1c-.08,0,0,0-.08,0h0Zm-.07.1a.17.17,0,0,0,0,.07v0c.06,0,0,.1.09.08a.31.31,0,0,0,.09-.11s-.06.07-.08.11h0l0,0a.14.14,0,0,1-.07-.1h0v0a.06.06,0,0,1,0,0S37.84,35.5,37.84,35.49Zm-.18-1,0,0h0Zm-.08.07s0,0,0,0S37.57,34.57,37.58,34.57Zm0,.08h0v0h0ZM35.82,37a.34.34,0,0,1,.49-.17.53.53,0,0,1,.12.55,1.56,1.56,0,0,1-.27.35c-.08,0-.15,0-.23,0s0-.14-.12-.16C35.78,37.45,35.67,37.23,35.82,37ZM35,38.68a.13.13,0,0,1,.18,0,.43.43,0,0,1-.06.29c-.08,0-.17-.05-.18-.14S35,38.73,35,38.68Zm-1.32,2.76c.1-.13.2-.37.42-.29l.12.12a1,1,0,0,1,.07.57.41.41,0,0,1-.32.25h0c0-.11-.21-.12-.27-.23a.45.45,0,0,1,0-.23ZM17.79,68c.2-.08.07-.33.32-.32,0-.14.21-.05.29-.08.18.31.34-.06.58.13.1,0,.12.15.16.22.05.31-.16.47-.2.77-.13,0-.15-.19-.3-.07s0,.06,0,.09-.14,0-.21,0,0,.16,0,.21-.12-.3-.24-.12V69c-.13,0,0-.27-.12-.32l-.13.14c0-.07.11-.18,0-.21s-.05.11-.14.11.18-.33,0-.36,0,.17-.09,0C17.81,68.28,17.61,68.12,17.79,68Zm-.36,2.58.05,0h0c.06,0,.11.08.11.13v.07a.2.2,0,0,0-.05-.14c-.1,0,0,0-.09,0l-.05,0a.3.3,0,0,0-.06.18v0c.07,0,0,.13.11.11a.25.25,0,0,0,.11-.14s-.07.09-.1.14h0l0,0a.23.23,0,0,1-.09-.14h0a0,0,0,0,1,0,0,.07.07,0,0,1,0-.05A.17.17,0,0,1,17.43,70.58Zm-.26-1.18,0,0h0Zm-.1.1s0,0,0,.06S17.05,69.5,17.07,69.5Zm0,.09h0v0h0ZM13.21,93.14c-.05,0-.09-.09-.07-.15s0-.09.1-.11a.1.1,0,0,1,.1.09A.31.31,0,0,1,13.21,93.14Zm1.57-20.51a.44.44,0,0,1,.64-.21.68.68,0,0,1,.15.7,2.51,2.51,0,0,1-.35.44c-.11.07-.2,0-.31,0s0-.17-.14-.2C14.74,73.15,14.59,72.86,14.78,72.63Zm5.68,53.85a.36.36,0,0,1-.31.11h0c0-.1-.13-.15-.14-.25a.28.28,0,0,1,0-.18.84.84,0,0,1,.06-.14c.11-.07.25-.22.39-.11l.06.13A.73.73,0,0,1,20.46,126.48Zm1.35-1.9c-.06,0-.12-.08-.1-.15a.26.26,0,0,1,.09-.14.12.12,0,0,1,.13.09A.32.32,0,0,1,21.81,124.58Zm8.7,16.85a.42.42,0,0,1-.39,0c0-.11-.08-.22-.06-.33h0a.4.4,0,0,1,.11-.19l.12-.12c.15,0,.37-.16.49,0V141A.87.87,0,0,1,30.51,141.43Zm3.93,4.6s0-.06-.06-.08-.05.16-.16.21,0-.27-.23-.24c0,.13.15.29.1.38a.28.28,0,0,0-.09-.16c-.14.09,0,.27,0,.4s.2.25.11.4a4.55,4.55,0,0,1-.8-1.12,3.77,3.77,0,0,1-.41-1.38c0-.46.49-.56.68-.88,0-.1.15,0,.2-.08h0a.52.52,0,0,0-.1.23c0,.06.1,0,.1,0,.22.11.29.35.54.4l-.08.08a3.33,3.33,0,0,1,.21.48c-.13.15,0,.27,0,.41h-.08a.85.85,0,0,0,0,.32c.13.08.16.22.2.38A1.11,1.11,0,0,0,34.44,146Zm1.38.51c-.12,0-.19-.13-.28,0s0,.05,0,.08-.12.06-.18.09.06.13,0,.18-.2-.22-.24,0l0,.13c-.13,0,0-.26-.2-.25l-.08.16c0-.05,0-.19-.07-.18s0,.11-.09.14.06-.34-.14-.3,0,.16-.07.06c.12-.16-.11-.24,0-.41s0-.3.19-.38c0-.13.17-.1.23-.15.25.22.29-.15.55-.06.1,0,.16.09.21.14C35.91,146.05,35.77,146.26,35.82,146.54Zm3.12,3.13c-.19.15-.29.44-.53.57,0,.09,0,.14,0,.23s0,.13-.13.1.09-.28,0-.43-.3-.31-.31-.5a.71.71,0,0,0,.15-.3,1.89,1.89,0,0,0-.12-.44c0-.17.19-.25.24-.38s.21-.06.29-.16.27,0,.37.09.17.34.22.5A1.23,1.23,0,0,1,38.94,149.67Zm2.67,4.23h0s-.05-.06,0-.09,0,.07,0,.09h0s0,0,0,0Zm.06,0h0s0-.11,0-.13a.08.08,0,0,1,.05.05A.11.11,0,0,1,41.67,153.91Zm2.66.28c-.08,0-.16,0-.18-.1a.31.31,0,0,1,0-.19.13.13,0,0,1,.17,0A.33.33,0,0,1,44.33,154.19ZM80.91,168.1s0,0,0,0S80.9,168.08,80.91,168.1Zm0,.05v0h0v0Z"/><path d="M116.44,154.35a3.36,3.36,0,0,0,.33-.16,4.07,4.07,0,0,0,1-.7,4.07,4.07,0,0,0,1.25-2.8,4,4,0,0,0-.27-1.59L117,144.58l-.36-1a4,4,0,0,0-.65-1.09,3,3,0,0,0-.22-.28A4.07,4.07,0,0,0,113,141a3.8,3.8,0,0,0-1.59.26l-1.49.58h0a4.25,4.25,0,0,0-.64.32,4,4,0,0,0-.69.53,4,4,0,0,0-1.24,2.81,3.73,3.73,0,0,0,.27,1.6l1.12,2.91,1,2.56a4.09,4.09,0,0,0,.86,1.36,4.28,4.28,0,0,0,1.28.89,4.12,4.12,0,0,0,1.52.35,4,4,0,0,0,1.59-.27Zm.29-9.2c0-.05.11-.07.13,0s0,0,0,0h0c-.06,0,.05-.06,0-.08s0,0-.06,0,0,.14.06.09l-.06,0A.12.12,0,0,1,116.73,145.15ZM109,148.06a.33.33,0,0,1-.28.11h0c0-.09-.13-.13-.14-.22a.33.33,0,0,1,0-.17.61.61,0,0,1,0-.12c.1-.07.22-.22.36-.12l0,.11A.64.64,0,0,1,109,148.06Zm6.76-.87a1.22,1.22,0,0,0,0-.33c0-.12.18-.13.24-.22s.16,0,.23,0,.19,0,.24.13.06.27.06.39a.9.9,0,0,1-.23.47c-.16.07-.29.25-.48.3,0,.07-.06.09,0,.16s0,.08-.11,0,.12-.18.06-.3-.15-.28-.12-.41A.56.56,0,0,0,115.8,147.19Zm-2,7.63c-.09,0-.08-.17-.21-.1s0,.05,0,.07-.11,0-.16,0,0,.12,0,.15,0-.23-.16-.12l0,.11c-.09,0,.07-.19,0-.25l-.12.08c0-.05.11-.12,0-.16s0,.08-.12.06.19-.21,0-.27-.06.12-.07,0c.14-.07,0-.22.17-.28s.1-.23.29-.19.17,0,.23,0c.08.26.26,0,.41.2.07,0,.07.13.09.18C114,154.52,113.85,154.61,113.77,154.82Zm.32-2.18a1.52,1.52,0,0,1-.46.1,1.52,1.52,0,0,0,0,.21c-.15,0-.08.2-.2.26l-.05,0c-.07.05-.11.15-.16.21a.43.43,0,0,1,0,.35l-.16.16a.06.06,0,0,0,0-.08c-.08,0-.11.09-.2.08s.08-.2-.06-.26c0,.09,0,.26-.09.3a.22.22,0,0,0,0-.14c-.13,0-.12.18-.16.28s0,.26-.09.33a3.8,3.8,0,0,1-.09-1.12,2.55,2.55,0,0,1,.22-1,1.92,1.92,0,0,1-.54-.78l-.17-.43-1-2.72-.79-2a2,2,0,0,1-.06-1.33,1.44,1.44,0,0,1,.89-.9l1.46-.56a1.47,1.47,0,0,1,.82-.08,2.88,2.88,0,0,1,0-.66c.09-.32.44-.3.64-.48,0-.07.1,0,.15,0s-.1.09-.11.15.06,0,.07,0,.13.3.3.38l-.07,0a2.47,2.47,0,0,1,.05.38c-.11.07,0,.19-.1.27l0,0a1,1,0,0,0-.09.21.41.41,0,0,1,.07.29l.12.16.05,0c0-.09.14,0,.19-.07.14.21.23-.05.4.07s.09.09.12.14c0,.2-.09.32-.11.53-.08,0-.11-.13-.2,0s0,0,0,.06-.07,0-.11,0L116,149l.35.89a2,2,0,0,1,.06,1.33,1.41,1.41,0,0,1-.89.89l-.68.27Z"/><path d="M118.46,159.48a.9.9,0,0,0,.83.56,1,1,0,0,0,.35-.07l.42-.18a.9.9,0,0,0,.48-1.18s0,0,0,0a.91.91,0,0,0-1.17-.47l-.42.18a.9.9,0,0,0-.49,1.15S118.45,159.47,118.46,159.48Zm.92-.78a.09.09,0,0,1,.09.08.26.26,0,0,1-.11.14s-.08-.07-.06-.12A.2.2,0,0,1,119.38,158.7Z"/><path d="M133.56,152c.13,0,.09-.18.23-.14s.1,0,.15,0a.9.9,0,0,0,0-.7s0,.13-.09.16l0,0c-.06,0-.09.11-.13.15a.39.39,0,0,1,0,.28.79.79,0,0,0-.13.13s0,0,0-.06-.09.07-.16.06.06-.17,0-.21,0,.2-.07.24a.17.17,0,0,0,0-.12c-.1,0-.09.14-.12.22s0,.21-.08.26a3.16,3.16,0,0,1-.06-.69,1.34,1.34,0,0,1,0-.2,2.25,2.25,0,0,1,.2-.76,1,1,0,0,0-.6.15l-.36.26a.9.9,0,0,0-.23,1.25h0a.91.91,0,0,0,.74.39.78.78,0,0,0,.22,0h.07a1,1,0,0,0,.23-.12l.22-.15s.05-.08,0-.1,0,.09-.06,0S133.44,152.09,133.56,152Z"/><path d="M143.89,152.05l0,0s0-.05,0-.05Z"/><path d="M143.76,152.1s0-.09,0-.13,0,.06-.09.05a.31.31,0,0,1,.08.15l.12-.11V152C143.81,152,143.76,152.05,143.76,152.1Z"/><path d="M143.25,152.61l.05,0a.25.25,0,0,0,0-.07A.21.21,0,0,1,143.25,152.61Z"/><path d="M28.17,125.28h.07l-.17-.33a.91.91,0,0,0-1.2-.4h0a1,1,0,0,0-.23.18.64.64,0,0,1-.11.16.92.92,0,0,0-.13.36,1,1,0,0,1,0,.38c0,.05,0,.09,0,.14l.21.4a.91.91,0,0,0,.8.49,1,1,0,0,0,.34-.07s0,0,0-.08a1.65,1.65,0,0,1-.11-.36v-.09a.58.58,0,0,0,.19-.19,1.48,1.48,0,0,0,0-.36C27.93,125.37,28.11,125.37,28.17,125.28Z"/><path d="M41.79,109c-.1,0,0,.17,0,.25a.14.14,0,0,0,0,.11,2.62,2.62,0,0,0,.11-.4s0-.1-.09-.1.06.2,0,.25A.21.21,0,0,0,41.79,109Z"/><path d="M62.18,105.72s0,0,0,0l0,0S62.18,105.73,62.18,105.72Z"/><path d="M163.48,83.65a.76.76,0,0,0-.15,0h0a.9.9,0,0,0-.78,1l0,.45a.91.91,0,0,0,.9.81h.09a1,1,0,0,0,.81-1l-.05-.46A.88.88,0,0,0,163.48,83.65Z"/><path d="M170.8,87l0,0a.37.37,0,0,1,.05.18A.76.76,0,0,1,170.8,87Z"/><text class="cls-2" transform="translate(52.97 104.19)"></text></g></g></svg>